<svg width="40" height="40" viewBox="0 0 40 40" fill="none" xmlns="http://www.w3.org/2000/svg">
<path d="M38.9272 8.51271C38.9272 8.00526 38.6207 7.54801 38.1513 7.35514L20.4758 0.0938574C20.171 -0.0312858 19.8294 -0.0312858 19.5247 0.0938574L1.84913 7.35514C1.37976 7.54794 1.07324 8.00526 1.07324 8.51271V31.4873C1.07324 31.9947 1.37969 32.452 1.84913 32.6449L19.5247 39.9061C19.8261 40.03 20.1649 40.0326 20.4742 39.9061C20.4893 39.9011 19.8201 40.1755 38.1513 32.6449C38.6207 32.4521 38.9272 31.9947 38.9272 31.4873V8.51271ZM20.0002 14.5263L13.4875 11.8508L27.5622 5.71091L34.5106 8.56535L20.0002 14.5263ZM3.57611 10.485L9.19512 12.7933V19.3058C9.19512 19.9969 9.75544 20.5572 10.4465 20.5572C11.1377 20.5572 11.698 19.9969 11.698 19.3058V13.8215L18.7488 16.718V36.8815L3.57611 30.6484V10.485ZM20.0002 2.60431L24.3385 4.3865L10.2637 10.5264L5.48986 8.56527L20.0002 2.60431ZM21.2516 16.718L36.4243 10.485V30.6484L21.2516 36.8815V16.718Z" fill="white"/>
</svg>
