<svg width="40" height="40" viewBox="0 0 40 40" fill="none" xmlns="http://www.w3.org/2000/svg">
<path d="M35.375 38H4.625C3.1775 38 2 36.8225 2 35.375V16.625C2 15.1775 3.1775 14 4.625 14H35.375C36.8225 14 38 15.1775 38 16.625V35.375C38 36.8225 36.8225 38 35.375 38ZM4.625 16.25C4.418 16.25 4.25 16.418 4.25 16.625V35.375C4.25 35.582 4.418 35.75 4.625 35.75H35.375C35.582 35.75 35.75 35.582 35.75 35.375V16.625C35.75 16.418 35.582 16.25 35.375 16.25H4.625Z" fill="white"/>
<path d="M35.375 11H16.625C15.1775 11 14 9.8225 14 8.375V4.625C14 3.1775 15.1775 2 16.625 2H35.375C36.8225 2 38 3.1775 38 4.625V8.375C38 9.8225 36.8225 11 35.375 11ZM16.625 4.25C16.418 4.25 16.25 4.418 16.25 4.625V8.375C16.25 8.582 16.418 8.75 16.625 8.75H35.375C35.582 8.75 35.75 8.582 35.75 8.375V4.625C35.75 4.418 35.582 4.25 35.375 4.25H16.625Z" fill="white"/>
<path d="M6.5 11C4.019 11 2 8.981 2 6.5C2 4.019 4.019 2 6.5 2C8.981 2 11 4.019 11 6.5C11 8.981 8.981 11 6.5 11ZM6.5 4.25C5.2595 4.25 4.25 5.2595 4.25 6.5C4.25 7.7405 5.2595 8.75 6.5 8.75C7.7405 8.75 8.75 7.7405 8.75 6.5C8.75 5.2595 7.7405 4.25 6.5 4.25Z" fill="white"/>
</svg>
