<svg width="131" height="37" viewBox="0 0 131 37" fill="none" xmlns="http://www.w3.org/2000/svg">
<path d="M49.37 28H45.98V7.9H49.37V28ZM56.6593 28H53.2993V13.39H56.6593V17.38C57.1993 15.07 58.6993 13.09 61.6093 13.09C64.4593 13.09 66.1993 14.8 66.1993 17.83V28H62.8093V18.85C62.8093 17.05 62.2093 15.82 59.9593 15.82C57.4993 15.82 56.6593 17.41 56.6593 19.81V28ZM74.5461 28.33C71.7861 28.33 70.1961 26.59 70.1961 24.01V16H67.9161V13.39H70.1961V11.62L73.5561 9.49V13.39H78.0261V16H73.5561V23.2C73.5561 24.79 74.3061 25.18 75.2961 25.18C76.4361 25.18 77.2761 24.25 77.6961 23.41L78.7461 26.41C78.1161 27.34 76.6761 28.33 74.5461 28.33ZM83.694 28.3C81.294 28.3 79.854 26.95 79.854 24.85C79.854 22.78 81.294 21.52 83.664 20.59L88.554 18.52C88.434 17.05 87.774 16.06 85.764 16.06C83.814 16.06 82.284 17.2 81.444 18.73L79.434 16.33C80.574 14.77 82.854 13.09 86.094 13.09C89.724 13.09 91.764 15.16 91.764 18.76V24.25C91.764 24.91 92.004 25.12 92.544 25.12H93.474V28H91.404C89.844 28 88.614 27.28 88.614 25.18V24.1C88.164 26.02 86.754 28.3 83.694 28.3ZM83.094 24.34C83.094 25.18 83.664 25.69 84.894 25.69C87.114 25.69 88.614 24.37 88.614 22.39V20.83L84.864 22.51C83.604 23.08 83.094 23.59 83.094 24.34ZM99.4034 28H96.0434V13.39H99.4034V17.53C99.9434 15.19 101.413 13.09 104.023 13.09C105.853 13.09 107.203 14.29 107.203 16.45C107.203 17.86 106.813 18.91 106.543 19.36H103.093C103.573 18.88 104.023 17.92 104.023 17.08C104.023 16.27 103.633 15.61 102.643 15.61C100.963 15.61 99.4034 17.53 99.4034 19.96V28ZM112.734 11.32H109.374V7.9H112.734V11.32ZM112.734 28H109.374V13.39H112.734V28ZM122.438 28.3C118.238 28.3 115.358 25.24 115.358 20.71C115.358 16.15 118.238 13.09 122.438 13.09C126.698 13.09 129.578 16.15 129.578 20.71C129.578 25.24 126.698 28.3 122.438 28.3ZM122.468 25.51C124.658 25.51 126.158 24.07 126.158 20.71C126.158 17.32 124.658 15.88 122.468 15.88C120.308 15.88 118.808 17.32 118.808 20.71C118.808 24.07 120.308 25.51 122.468 25.51Z" fill="white"/>
<path d="M21.8938 8.49542V33.2679L20.8721 33.8596L19.0469 32.7984V10.1416L20.8721 9.08576L21.8938 8.49542Z" fill="#ECCEB0"/>
<path d="M13.0182 10.1416V25.9939L10.1699 27.6414V8.49542L11.193 9.08576L13.0182 10.1416Z" fill="#ECCEB0"/>
<mask id="mask0_336_27" style="mask-type:luminance" maskUnits="userSpaceOnUse" x="0" y="0" width="32" height="37">
<path d="M0 0H32V37H0V0Z" fill="white"/>
</mask>
<g mask="url(#mask0_336_27)">
<path d="M31.9038 9.12785L16.1965 0.04477C16.1911 0.0406986 16.1856 0.0393418 16.1802 0.0366274C16.1694 0.0311993 16.1599 0.0257703 16.1491 0.0216993C16.1382 0.0176279 16.1274 0.0149136 16.1179 0.0121996C16.107 0.00948555 16.0976 0.0081281 16.0881 0.00541408C16.0759 0.00405671 16.0637 0.00269987 16.0515 0.00269987C16.0461 0.00269987 16.0393 0.00134277 16.0339 0.00134277C16.0298 0.00134277 16.0271 0.00134277 16.023 0.00134277C16.0108 0.00269979 15.9986 0.00405671 15.9878 0.00541408C15.9783 0.00677109 15.9688 0.00812802 15.9594 0.00948538C15.9485 0.0121994 15.9377 0.0162708 15.9282 0.0203422C15.9187 0.0230562 15.9079 0.0257702 15.8997 0.031199C15.8889 0.03527 15.8808 0.0406987 15.8713 0.0461271C15.8631 0.0515555 15.8537 0.0556269 15.8455 0.0624123C15.836 0.0691977 15.8279 0.0759834 15.8211 0.0827688C15.813 0.0895542 15.8049 0.09634 15.7968 0.104482C15.79 0.111268 15.7846 0.119411 15.7778 0.127553C15.771 0.137053 15.7642 0.145195 15.7575 0.156052C15.7561 0.158767 15.7534 0.160123 15.752 0.164195C15.7493 0.169623 15.7466 0.175052 15.7439 0.18048C15.7385 0.191337 15.7331 0.202194 15.729 0.213051C15.7263 0.223907 15.7236 0.233407 15.7209 0.242907C15.7182 0.253764 15.7155 0.263263 15.7141 0.27412C15.7114 0.286334 15.71 0.297191 15.71 0.309405C15.71 0.314833 15.7087 0.321619 15.7087 0.327047V36.0907L13.1843 34.6318H13.1829L12.3713 34.1636L11.3577 33.5774V33.576L3.50407 29.0352C3.50407 29.0352 3.50407 29.0352 3.50271 29.0352L0.653117 27.3876V9.59876L10.8672 3.69401V8.52122L10.3333 8.21316C10.3306 8.2118 10.3279 8.2118 10.3252 8.20909C10.3022 8.19688 10.2791 8.18738 10.2547 8.18059C10.252 8.18059 10.2507 8.18059 10.2493 8.18059C10.2263 8.1738 10.2033 8.17109 10.1789 8.17109C10.1707 8.17109 10.164 8.17109 10.1572 8.17109C10.1369 8.17245 10.1179 8.17516 10.0989 8.17923C10.0921 8.18059 10.0854 8.18059 10.0786 8.1833C10.0542 8.19009 10.0298 8.19959 10.0054 8.21316L3.17615 12.1623C3.07588 12.222 3.01355 12.3292 3.01355 12.446V23.6719C3.01355 23.676 3.01491 23.6787 3.01491 23.6828C3.01491 23.6936 3.01626 23.7058 3.01897 23.7167C3.01897 23.7275 3.02168 23.737 3.02304 23.7479C3.02575 23.7574 3.02846 23.7669 3.03252 23.7778C3.03523 23.7873 3.0393 23.7981 3.04336 23.8076C3.04743 23.8171 3.05285 23.8266 3.05827 23.8347C3.06369 23.8442 3.06911 23.8537 3.07453 23.8619C3.0813 23.87 3.08808 23.8782 3.09485 23.8863C3.10163 23.8945 3.1084 23.9026 3.11653 23.9094C3.12331 23.9162 3.13144 23.9216 3.13957 23.9284C3.14905 23.9352 3.15718 23.942 3.16802 23.9487C3.17073 23.9501 3.17344 23.9528 3.17615 23.9542L10.0068 27.9237H10.0081C10.0325 27.9386 10.0596 27.9495 10.0867 27.9576C10.1152 27.9644 10.1423 27.9685 10.1707 27.9685C10.1816 27.9685 10.1938 27.9644 10.206 27.9644C10.2222 27.9617 10.2385 27.9617 10.2534 27.9576C10.2615 27.9549 10.2696 27.9495 10.2791 27.9468C10.2968 27.94 10.3157 27.9346 10.332 27.9251C10.3333 27.9251 10.3333 27.9237 10.3333 27.9237L13.1816 26.2775C13.2832 26.2192 13.3455 26.1106 13.3455 25.9939V10.1416C13.3455 10.0249 13.2832 9.91632 13.1816 9.85797L11.519 8.89714V3.12675C11.519 3.11996 11.5176 3.11453 11.5176 3.10775C11.5163 3.09689 11.5163 3.08468 11.5136 3.07382C11.5122 3.06296 11.5095 3.05346 11.5068 3.04261C11.5041 3.03311 11.5014 3.02225 11.4973 3.01275C11.4932 3.00189 11.4892 2.99104 11.4824 2.98018C11.4797 2.97475 11.4783 2.96932 11.4756 2.96254C11.4729 2.95982 11.4715 2.95711 11.4688 2.95439C11.4621 2.94489 11.4553 2.93539 11.4485 2.9259C11.4417 2.91775 11.4363 2.90961 11.4295 2.90282C11.4214 2.89468 11.4146 2.8879 11.4065 2.88111C11.3984 2.87433 11.3902 2.86754 11.3821 2.86075C11.374 2.85533 11.3645 2.8499 11.355 2.84447C11.3455 2.83904 11.3374 2.83497 11.3279 2.82954C11.3184 2.82547 11.3076 2.82276 11.2981 2.81868C11.2873 2.81461 11.2778 2.8119 11.2669 2.80918C11.2588 2.80647 11.248 2.80647 11.2385 2.80511C11.2263 2.80376 11.2154 2.80104 11.2033 2.80104C11.1992 2.80104 11.1965 2.79968 11.1924 2.79968C11.187 2.79968 11.1802 2.80104 11.1748 2.8024C11.1626 2.8024 11.1504 2.80376 11.1382 2.80511C11.1287 2.80647 11.1192 2.80918 11.1098 2.8119C11.0989 2.81461 11.0894 2.81868 11.0786 2.82276C11.0678 2.82683 11.0569 2.8309 11.0474 2.83633C11.042 2.83904 11.0352 2.8404 11.0298 2.84447L0.162602 9.12785C0.0623305 9.1862 0 9.29341 0 9.41148V27.5763C0 27.693 0.0623305 27.8016 0.162602 27.8599L3.17615 29.6011H3.17751L11.0312 34.1433L12.0434 34.7296H12.0447L12.8564 35.1978V35.1991L15.8713 36.9403C15.8753 36.943 15.8794 36.943 15.8835 36.9457C15.8997 36.9552 15.9187 36.962 15.9377 36.9688C15.9444 36.9701 15.9512 36.9728 15.958 36.9742C15.9824 36.981 16.0068 36.9837 16.0325 36.9851C16.0339 36.9851 16.0339 36.9851 16.0339 36.9851C16.061 36.9851 16.0854 36.981 16.1098 36.9742C16.1165 36.9728 16.1233 36.9701 16.1287 36.9688C16.1477 36.9633 16.1653 36.9566 16.1829 36.9471C16.1897 36.9443 16.1965 36.9403 16.2033 36.9362C16.2222 36.9253 16.2398 36.9118 16.2561 36.8955C16.2588 36.8941 16.2615 36.8914 16.2642 36.8901C16.2818 36.8711 16.2968 36.8507 16.3117 36.8276C16.313 36.8249 16.3157 36.8236 16.3157 36.8208C16.3198 36.8154 16.3211 36.81 16.3239 36.8032C16.3293 36.7937 16.3333 36.7828 16.3374 36.772C16.3415 36.7625 16.3442 36.7516 16.3469 36.7421C16.3496 36.7326 16.3523 36.7218 16.3537 36.7123C16.355 36.7001 16.3564 36.6879 16.3577 36.6756C16.3577 36.6689 16.3591 36.6634 16.3591 36.658V0.892958L31.4133 9.59876V27.3863L29.0501 28.7515V12.446C29.0501 12.3279 28.9892 12.2207 28.8875 12.1623L22.0569 8.2118C22.0339 8.19959 22.0095 8.19009 21.9851 8.18195C21.9783 8.18059 21.9715 8.17923 21.9648 8.17788C21.9444 8.1738 21.9255 8.17109 21.9065 8.16973C21.8997 8.16973 21.893 8.16973 21.8862 8.16973C21.8604 8.16973 21.836 8.17245 21.813 8.17923C21.8117 8.17923 21.8103 8.17923 21.8103 8.17923C21.7859 8.18602 21.7615 8.19688 21.7385 8.20909C21.7371 8.21045 21.7344 8.21045 21.7317 8.2118L18.8835 9.85797C18.7832 9.91632 18.7209 10.0235 18.7209 10.1416V32.7984C18.7209 32.9151 18.7832 33.0223 18.8835 33.0807L20.71 34.1419C20.7602 34.1718 20.8171 34.1854 20.8726 34.1854C20.9295 34.1854 20.9865 34.1718 21.0366 34.1419L22.0583 33.5502C22.1585 33.4919 22.2222 33.3847 22.2222 33.268V9.06271L28.3997 12.6346V29.3188C28.3997 29.3242 28.4011 29.331 28.4011 29.3364C28.4011 29.3486 28.4024 29.3595 28.4052 29.3717C28.4065 29.3826 28.4092 29.3921 28.4119 29.4029C28.4146 29.4124 28.4173 29.4219 28.4214 29.4328C28.4255 29.4436 28.4295 29.4545 28.435 29.4654C28.4377 29.4694 28.439 29.4762 28.4431 29.4816C28.4445 29.483 28.4458 29.4857 28.4485 29.4884C28.4621 29.5101 28.477 29.5319 28.4959 29.5495C28.4987 29.5522 28.5 29.5536 28.5027 29.5563C28.519 29.5712 28.5379 29.5848 28.5569 29.597C28.5637 29.5997 28.5705 29.6038 28.5772 29.6079C28.5935 29.616 28.6111 29.6228 28.6301 29.6282C28.6369 29.6309 28.6423 29.6336 28.6491 29.635C28.6734 29.6404 28.6992 29.6445 28.7263 29.6445C28.752 29.6445 28.7778 29.6404 28.8008 29.635C28.8089 29.6323 28.8144 29.6309 28.8211 29.6282C28.8401 29.6228 28.8591 29.6146 28.8767 29.6051C28.8808 29.6038 28.8848 29.6024 28.8889 29.6011L31.9038 27.8586C32.0054 27.8002 32.0678 27.693 32.0678 27.5749V9.41148C32.0678 9.29341 32.0054 9.1862 31.9038 9.12785ZM9.84418 9.06271V27.0741L3.66667 23.4833V12.6346L9.84418 9.06271ZM12.6938 25.8053L10.4973 27.0755V9.06135L12.6938 10.3302V25.8053ZM21.5691 33.0793L20.874 33.481L19.374 32.6098V10.3302L21.5691 9.06135V33.0793Z" fill="white"/>
</g>
</svg>
