<svg width="256" height="256" viewBox="0 0 256 256" fill="none" xmlns="http://www.w3.org/2000/svg">
<path d="M169.256 58.7791V230.178L162.105 234.272L149.328 226.929V70.1687L162.105 62.8636L169.256 58.7791Z" fill="#ECCEB0"/>
<path d="M107.127 70.1687V179.849L87.1895 191.249V58.7791L94.3507 62.8636L107.127 70.1687Z" fill="#ECCEB0"/>
<mask id="mask0_449_307" style="mask-type:luminance" maskUnits="userSpaceOnUse" x="16" y="0" width="224" height="256">
<path d="M16 0H240V256H16V0Z" fill="white"/>
</mask>
<g mask="url(#mask0_449_307)">
<path d="M239.327 63.1558L129.375 0.310723C129.337 0.282554 129.299 0.273166 129.262 0.254385C129.186 0.216829 129.119 0.179266 129.043 0.151099C128.968 0.122929 128.892 0.104149 128.825 0.0853713C128.749 0.0665931 128.683 0.0572011 128.617 0.0384229C128.531 0.0290314 128.446 0.0196436 128.36 0.0196436C128.323 0.0196436 128.275 0.0102539 128.237 0.0102539C128.209 0.0102539 128.19 0.0102539 128.161 0.0102539C128.076 0.019643 127.991 0.0290314 127.915 0.0384229C127.848 0.047812 127.782 0.0572005 127.715 0.0665919C127.64 0.0853701 127.564 0.11354 127.497 0.141709C127.431 0.160487 127.355 0.179266 127.298 0.216827C127.222 0.244994 127.165 0.282554 127.099 0.320113C127.042 0.357672 126.976 0.385841 126.919 0.432789C126.852 0.479737 126.795 0.526686 126.748 0.573634C126.691 0.620582 126.634 0.667532 126.577 0.723869C126.53 0.770817 126.492 0.827157 126.444 0.883493C126.397 0.949222 126.35 1.00556 126.302 1.08068C126.293 1.09946 126.274 1.10884 126.264 1.13701C126.245 1.17457 126.226 1.21213 126.207 1.24969C126.169 1.32481 126.131 1.39993 126.103 1.47504C126.084 1.55016 126.065 1.61589 126.046 1.68162C126.027 1.75673 126.008 1.82246 125.999 1.89758C125.98 1.98208 125.97 2.0572 125.97 2.14171C125.97 2.17927 125.961 2.22622 125.961 2.26378V249.71L108.29 239.616H108.281L102.599 236.376L95.5041 232.32V232.311L40.5285 200.893C40.5285 200.893 40.5285 200.893 40.519 200.893L20.5718 189.494V66.414L92.0705 25.5596V58.9586L88.3334 56.8272C88.3144 56.8178 88.2954 56.8178 88.2764 56.799C88.1152 56.7145 87.9539 56.6488 87.7832 56.6018C87.7642 56.6018 87.7548 56.6018 87.7453 56.6018C87.584 56.5549 87.4228 56.5361 87.2521 56.5361C87.1951 56.5361 87.1477 56.5361 87.1003 56.5361C86.958 56.5455 86.8252 56.5643 86.6924 56.5924C86.645 56.6018 86.5976 56.6018 86.5502 56.6206C86.3794 56.6675 86.2087 56.7333 86.038 56.8272L38.2331 84.1511C37.5312 84.5643 37.0949 85.306 37.0949 86.1135V163.785C37.0949 163.813 37.1043 163.832 37.1043 163.86C37.1043 163.935 37.1138 164.02 37.1328 164.095C37.1328 164.17 37.1518 164.236 37.1613 164.311C37.1802 164.376 37.1992 164.442 37.2276 164.517C37.2466 164.583 37.2751 164.658 37.3035 164.724C37.332 164.79 37.3699 164.855 37.4079 164.912C37.4458 164.977 37.4837 165.043 37.5217 165.099C37.5691 165.156 37.6165 165.212 37.664 165.268C37.7114 165.325 37.7588 165.381 37.8157 165.428C37.8632 165.475 37.9201 165.513 37.977 165.56C38.0434 165.607 38.1003 165.653 38.1762 165.7C38.1951 165.71 38.2141 165.729 38.2331 165.738L86.0474 193.203H86.0569C86.2277 193.306 86.4174 193.381 86.6071 193.438C86.8063 193.484 86.996 193.513 87.1951 193.513C87.271 193.513 87.3564 193.484 87.4418 193.484C87.5556 193.466 87.6694 193.466 87.7737 193.438C87.8306 193.419 87.8876 193.381 87.9539 193.362C88.0773 193.315 88.21 193.278 88.3239 193.212C88.3334 193.212 88.3334 193.203 88.3334 193.203L108.271 181.813C108.982 181.409 109.419 180.658 109.419 179.851V70.1699C109.419 69.3624 108.982 68.6112 108.271 68.2074L96.6328 61.5596V21.6347C96.6328 21.5877 96.6233 21.5502 96.6233 21.5032C96.6138 21.4281 96.6138 21.3436 96.5949 21.2685C96.5854 21.1934 96.5664 21.1276 96.5474 21.0525C96.5285 20.9868 96.5095 20.9117 96.4811 20.8459C96.4526 20.7708 96.4241 20.6957 96.3767 20.6206C96.3577 20.583 96.3483 20.5455 96.3293 20.4985C96.3103 20.4797 96.3008 20.461 96.2819 20.4422C96.2344 20.3765 96.187 20.3107 96.1396 20.245C96.0922 20.1887 96.0542 20.1323 96.0068 20.0854C95.9499 20.029 95.9025 19.9821 95.8456 19.9351C95.7886 19.8882 95.7317 19.8412 95.6748 19.7943C95.6179 19.7567 95.5515 19.7192 95.4851 19.6816C95.4187 19.6441 95.3618 19.6159 95.2954 19.5783C95.229 19.5502 95.1531 19.5314 95.0867 19.5032C95.0109 19.475 94.9445 19.4563 94.8686 19.4375C94.8117 19.4187 94.7358 19.4187 94.6694 19.4093C94.584 19.3999 94.5082 19.3811 94.4228 19.3811C94.3943 19.3811 94.3754 19.3718 94.3469 19.3718C94.309 19.3718 94.2615 19.3811 94.2236 19.3905C94.1382 19.3905 94.0529 19.3999 93.9675 19.4093C93.9011 19.4187 93.8347 19.4375 93.7683 19.4563C93.6924 19.475 93.626 19.5032 93.5502 19.5314C93.4743 19.5595 93.3984 19.5877 93.332 19.6253C93.2941 19.6441 93.2466 19.6534 93.2087 19.6816L17.1382 63.1558C16.4363 63.5596 16 64.3013 16 65.1182V190.799C16 191.607 16.4363 192.358 17.1382 192.761L38.2331 204.808H38.2426L93.2182 236.236L100.304 240.292H100.313L105.995 243.531V243.541L127.099 255.588C127.127 255.607 127.156 255.607 127.184 255.625C127.298 255.691 127.431 255.738 127.564 255.785C127.611 255.794 127.659 255.813 127.706 255.822C127.877 255.869 128.047 255.888 128.228 255.898C128.237 255.898 128.237 255.898 128.237 255.898C128.427 255.898 128.598 255.869 128.768 255.822C128.816 255.813 128.863 255.794 128.901 255.785C129.034 255.747 129.157 255.7 129.281 255.635C129.328 255.616 129.375 255.588 129.423 255.56C129.556 255.484 129.679 255.391 129.793 255.278C129.812 255.268 129.831 255.25 129.85 255.24C129.973 255.109 130.077 254.968 130.182 254.808C130.191 254.79 130.21 254.78 130.21 254.761C130.239 254.724 130.248 254.686 130.267 254.639C130.305 254.574 130.333 254.499 130.362 254.423C130.39 254.358 130.409 254.283 130.428 254.217C130.447 254.151 130.466 254.076 130.476 254.01C130.485 253.926 130.495 253.841 130.504 253.757C130.504 253.71 130.514 253.672 130.514 253.635V6.17927L235.893 66.414V189.484L219.351 198.93V86.1135C219.351 85.2967 218.924 84.5549 218.213 84.1511L170.398 56.8178C170.237 56.7333 170.066 56.6675 169.896 56.6112C169.848 56.6018 169.801 56.5924 169.753 56.583C169.611 56.5549 169.478 56.5361 169.346 56.5267C169.298 56.5267 169.251 56.5267 169.203 56.5267C169.023 56.5267 168.852 56.5455 168.691 56.5924C168.682 56.5924 168.672 56.5924 168.672 56.5924C168.501 56.6394 168.331 56.7145 168.169 56.799C168.16 56.8084 168.141 56.8084 168.122 56.8178L148.184 68.2074C147.482 68.6112 147.046 69.353 147.046 70.1699V226.93C147.046 227.738 147.482 228.48 148.184 228.884L160.97 236.226C161.321 236.433 161.72 236.527 162.108 236.527C162.507 236.527 162.905 236.433 163.256 236.226L170.408 232.132C171.11 231.729 171.556 230.987 171.556 230.179V62.7051L214.798 87.4187V202.855C214.798 202.893 214.808 202.94 214.808 202.977C214.808 203.062 214.817 203.137 214.836 203.222C214.846 203.297 214.865 203.362 214.884 203.438C214.902 203.503 214.921 203.569 214.95 203.644C214.978 203.719 215.007 203.794 215.045 203.869C215.064 203.898 215.073 203.945 215.102 203.982C215.111 203.992 215.121 204.01 215.14 204.029C215.234 204.179 215.339 204.33 215.472 204.452C215.491 204.47 215.5 204.48 215.519 204.499C215.633 204.602 215.766 204.696 215.898 204.78C215.946 204.799 215.993 204.827 216.041 204.855C216.155 204.912 216.278 204.959 216.411 204.996C216.458 205.015 216.496 205.034 216.543 205.043C216.714 205.081 216.894 205.109 217.084 205.109C217.264 205.109 217.445 205.081 217.606 205.043C217.663 205.024 217.701 205.015 217.748 204.996C217.881 204.959 218.014 204.902 218.137 204.837C218.165 204.827 218.194 204.818 218.222 204.808L239.327 192.752C240.038 192.348 240.474 191.607 240.474 190.79V65.1182C240.474 64.3013 240.038 63.5596 239.327 63.1558ZM84.9092 62.7051V187.325L41.6667 162.48V87.4187L84.9092 62.7051ZM104.856 178.545L89.481 187.334V62.6957L104.856 71.4751V178.545ZM166.984 228.874L162.118 231.653L151.618 225.625V71.4751L166.984 62.6957V228.874Z" fill="white"/>
</g>
</svg>
