<svg width="54" height="48" viewBox="0 0 54 48" fill="none" xmlns="http://www.w3.org/2000/svg">
<g clip-path="url(#clip0_306_4293)">
<path d="M31.1029 12.3529C31.1029 9.3851 32.216 6.38595 33.9053 4.03949C35.8287 1.7706 37.9746 0.827587 40.6966 0.827587C43.6756 0.827587 46.429 2.43934 48.0911 4.40148C50.9496 8.13352 52.6724 12.1897 52.6724 19.0588C52.6724 30.7955 45.7579 41.259 35.9405 46.8824L34.0642 43.6699C43.6022 37.2045 45.684 29.0652 46.2831 23.7396L46.4901 21.8994L44.981 22.9726C43.7125 23.8748 41.8649 24.2156 39.9415 23.8899L39.9265 23.8874L39.9114 23.8854C35.0344 23.243 31.1029 18.7191 31.1029 12.3529ZM16.5078 23.7396L16.7148 21.8994L15.2057 22.9726C13.9373 23.8748 12.0896 24.2156 10.1663 23.8899L10.1512 23.8874L10.1361 23.8854C5.25911 23.243 1.32759 18.7191 1.32759 12.3529C1.32759 9.37449 2.44871 6.36451 4.14815 4.01435C5.74662 1.80382 8.14872 0.827587 10.9213 0.827587C13.9003 0.827587 16.6537 2.43933 18.3158 4.40146C21.1743 8.1335 22.8971 12.1896 22.8971 19.0588C22.8971 30.7955 15.9826 41.259 6.16518 46.8824L4.28895 43.6699C13.8269 37.2045 15.9087 29.0652 16.5078 23.7396Z" stroke="#ECCEB0" stroke-width="1.65517"/>
</g>
<defs>
<clipPath id="clip0_306_4293">
<rect width="53" height="48" fill="white" transform="translate(0.5)"/>
</clipPath>
</defs>
</svg>
