<svg width="704" height="704" viewBox="0 0 704 704" fill="none" xmlns="http://www.w3.org/2000/svg">
<path d="M607.791 165.85C614.282 163.127 618.897 156.433 618.935 148.547C618.977 138.215 611.159 129.802 601.47 129.758C591.786 129.713 583.897 138.053 583.854 148.385C583.821 156.344 588.469 163.118 595.032 165.85C568.037 169.916 569.262 199.255 569.262 199.255L633.094 199.549C633.094 199.549 634.549 169.891 607.791 165.85Z" fill="#F5F5F5"/>
<path d="M230.655 56.2074L188.942 41.4557L147.634 56.0088C142.361 58.4616 137.734 59.9301 137.734 64.768V88.8547C137.734 105.582 142.185 122.158 151.341 136.791C159.047 149.106 170.979 161.786 189.346 169.846C206.231 164.445 218.835 150.046 226.54 137.732C235.697 123.099 240.147 106.522 240.147 89.7952V68.1331C240.148 61.2353 236.437 57.866 230.655 56.2074Z" fill="#171717"/>
<path d="M202.795 95.0921C202.795 88.7139 197.623 83.5423 191.245 83.5423C184.867 83.5423 179.695 88.7139 179.695 95.0921C179.695 100.371 183.258 104.774 188.094 106.152V123.42H194.395V106.152C199.233 104.774 202.795 100.371 202.795 95.0921Z" fill="#ECCEB0"/>
<path d="M585.36 279.478L592.475 283.329L589.276 288.681L582.096 284.439L582.227 292.336H576.093L576.157 284.372L568.978 288.681L565.844 283.329L572.958 279.478L565.844 275.563L568.978 270.211L576.157 274.519L576.093 266.556H582.227L582.096 274.519L589.276 270.211L592.475 275.563L585.36 279.478Z" fill="white"/>
<path d="M614.989 279.478L622.104 283.329L618.905 288.681L611.725 284.439L611.856 292.336H605.722L605.786 284.372L598.607 288.681L595.473 283.329L602.587 279.478L595.473 275.563L598.607 270.211L605.786 274.519L605.722 266.556H611.856L611.725 274.519L618.905 270.211L622.104 275.563L614.989 279.478Z" fill="white"/>
<path d="M644.614 279.478L651.729 283.329L648.53 288.681L641.35 284.439L641.481 292.336H635.347L635.411 284.372L628.232 288.681L625.098 283.329L632.212 279.478L625.098 275.563L628.232 270.211L635.411 274.519L635.347 266.556H641.481L641.35 274.519L648.53 270.211L651.729 275.563L644.614 279.478Z" fill="white"/>
<path d="M343.18 616.5V660.236H407.138H477.68V616.5H343.18Z" fill="#F5F5F5"/>
<path d="M337.535 604.273V616.5H482.383V604.273H407.137H337.535Z" fill="#EBEBEB"/>
<path d="M409.958 660.236H477.679V616.5H482.383V604.273H407.137V615.369L409.958 660.236Z" fill="#EBEBEB"/>
<path d="M389.264 623.552H361.988V630.136H389.264V623.552Z" fill="#E0E0E0"/>
<path d="M393.504 638.367H358.48V652.27H393.504V638.367Z" fill="white"/>
<path d="M363.871 560.594V604.33H427.828H498.372V560.594H363.871Z" fill="#F5F5F5"/>
<path d="M358.227 548.367V560.594H503.073V548.367H427.827H358.227Z" fill="#EBEBEB"/>
<path d="M430.651 604.33H498.372V560.594H503.074V548.367H427.828V559.463L430.651 604.33Z" fill="#EBEBEB"/>
<path d="M409.955 567.648H382.68V574.232H409.955V567.648Z" fill="#E0E0E0"/>
<path d="M414.196 582.461H379.172V596.364H414.196V582.461Z" fill="white"/>
<path d="M653.408 660.572C653.408 660.774 518.451 660.938 352.013 660.938C185.517 660.938 50.5898 660.773 50.5898 660.572C50.5898 660.37 185.517 660.206 352.013 660.206C518.451 660.206 653.408 660.369 653.408 660.572Z" fill="#263238"/>
<path d="M528.998 317.866H277.48C272.379 317.866 268.242 313.731 268.242 308.629V77.226C268.242 72.1248 272.377 67.9881 277.48 67.9881H528.998C534.099 67.9881 538.235 72.1234 538.235 77.226V308.628C538.236 313.729 534.099 317.866 528.998 317.866Z" fill="#171717"/>
<path d="M528.996 317.866C528.996 317.866 529.22 317.842 529.661 317.814C530.1 317.784 530.758 317.693 531.594 317.451C532.421 317.191 533.434 316.766 534.465 315.992C535.487 315.222 536.549 314.105 537.263 312.565C538.061 311.043 538.223 309.119 538.143 307.017C538.137 304.912 538.131 302.61 538.126 300.118C538.116 295.131 538.105 289.378 538.092 282.902C538.064 256.987 538.024 219.504 537.975 173.19C537.961 150.028 537.947 124.66 537.93 97.4266C537.917 90.6245 537.905 83.7056 537.892 76.6769C537.729 73.2667 535.376 70.0565 532.112 68.8794C530.497 68.2063 528.727 68.3148 526.915 68.3105C525.116 68.3119 523.308 68.3119 521.496 68.3134C506.989 68.3176 492.059 68.3232 476.748 68.3288C415.504 68.3373 348.175 68.3471 277.503 68.3584C275.376 68.3612 273.274 69.1384 271.676 70.531C270.065 71.9066 268.988 73.8806 268.708 75.9715C268.563 76.9993 268.62 78.1088 268.608 79.2056V82.4919C268.608 84.6814 268.608 86.8666 268.608 89.0476C268.608 97.7743 268.606 106.443 268.606 115.051C268.605 132.263 268.602 149.223 268.601 165.888C268.594 199.218 268.587 231.367 268.58 261.992C268.574 277.306 268.57 292.237 268.564 306.745C268.571 307.647 268.54 308.574 268.604 309.432C268.699 310.296 268.875 311.157 269.212 311.961C269.861 313.574 270.991 314.975 272.407 315.962C273.827 316.942 275.522 317.501 277.237 317.539C279.007 317.543 280.771 317.549 282.527 317.553C289.564 317.556 296.49 317.56 303.299 317.563C330.534 317.579 355.904 317.594 379.065 317.608C425.38 317.657 462.86 317.697 488.773 317.725C501.718 317.755 511.771 317.779 518.6 317.794C522.003 317.81 524.599 317.822 526.356 317.831C528.101 317.84 528.996 317.866 528.996 317.866C528.996 317.866 528.101 317.891 526.353 317.904C524.596 317.912 522 317.924 518.597 317.94C511.769 317.956 501.715 317.98 488.77 318.009C462.857 318.038 425.377 318.077 379.063 318.126C355.901 318.14 330.532 318.154 303.297 318.171C296.488 318.174 289.562 318.178 282.524 318.181C280.763 318.178 278.993 318.174 277.218 318.171C275.383 318.132 273.563 317.535 272.04 316.486C270.523 315.43 269.31 313.931 268.613 312.201C268.254 311.34 268.061 310.418 267.96 309.49C267.891 308.542 267.925 307.659 267.916 306.747C267.911 292.239 267.907 277.307 267.901 261.994C267.894 231.368 267.887 199.218 267.88 165.889C267.878 149.224 267.876 132.263 267.874 115.052C267.874 106.446 267.873 97.7758 267.873 89.049C267.873 86.8666 267.873 84.6814 267.873 82.4933V79.2071C267.887 78.1159 267.822 77.019 267.98 75.8701C268.284 73.606 269.451 71.4673 271.193 69.979C272.92 68.4725 275.204 67.6277 277.501 67.6277C348.172 67.6375 415.503 67.6474 476.745 67.6558C492.056 67.6614 506.986 67.6657 521.493 67.6713C523.307 67.6713 525.113 67.6727 526.912 67.6727C528.674 67.6783 530.596 67.5629 532.332 68.2866C535.828 69.5524 538.343 72.9893 538.516 76.6417C538.523 83.6845 538.528 90.6147 538.535 97.4294C538.519 124.663 538.504 150.031 538.49 173.192C538.441 219.507 538.402 256.99 538.374 282.905C538.361 289.381 538.35 295.134 538.34 300.121C538.333 302.613 538.327 304.915 538.323 307.02C538.392 309.105 538.214 311.102 537.392 312.632C536.656 314.192 535.57 315.316 534.528 316.085C533.478 316.859 532.449 317.276 531.611 317.527C530.765 317.759 530.102 317.838 529.659 317.855C529.22 317.867 528.996 317.866 528.996 317.866Z" fill="#999794"/>
<path d="M288.616 85.3065C288.616 87.8845 286.527 89.974 283.949 89.974C281.371 89.974 279.281 87.8845 279.281 85.3065C279.281 82.7285 281.371 80.639 283.949 80.639C286.527 80.639 288.616 82.7285 288.616 85.3065Z" fill="#CFCFCF"/>
<path d="M297.582 89.974C300.159 89.974 302.249 87.8843 302.249 85.3065C302.249 82.7287 300.159 80.639 297.582 80.639C295.004 80.639 292.914 82.7287 292.914 85.3065C292.914 87.8843 295.004 89.974 297.582 89.974Z" fill="#CFCFCF"/>
<path d="M311.214 89.974C313.792 89.974 315.882 87.8843 315.882 85.3065C315.882 82.7287 313.792 80.639 311.214 80.639C308.637 80.639 306.547 82.7287 306.547 85.3065C306.547 87.8843 308.637 89.974 311.214 89.974Z" fill="#CFCFCF"/>
<path d="M538.236 98.5473C538.236 98.7501 477.791 98.9134 403.245 98.9134C328.675 98.9134 268.242 98.7487 268.242 98.5473C268.242 98.346 328.674 98.1813 403.245 98.1813C477.791 98.1813 538.236 98.346 538.236 98.5473Z" fill="#999794"/>
<path d="M441.377 192.678C441.377 192.678 441.484 192.529 441.7 192.244C441.754 192.172 441.815 192.093 441.881 192.005C441.943 191.913 441.998 191.803 442.064 191.689C442.195 191.46 442.359 191.198 442.475 190.868C442.539 190.707 442.616 190.539 442.681 190.355C442.733 190.167 442.787 189.97 442.844 189.762C442.91 189.556 442.946 189.335 442.981 189.103C443.01 188.871 443.074 188.631 443.082 188.376C443.192 187.363 443.124 186.18 442.922 184.873C442.518 182.253 441.407 179.168 439.706 175.816C438.008 172.455 435.671 168.84 432.798 165.073C429.924 161.303 426.469 157.412 422.499 153.503C418.522 149.599 414.021 145.677 408.976 141.96C406.452 140.104 403.789 138.305 400.983 136.611C398.18 134.912 395.223 133.328 392.104 131.955C388.985 130.599 385.695 129.418 382.224 128.857C380.495 128.591 378.711 128.462 376.955 128.728C376.08 128.863 375.221 129.101 374.41 129.464C373.613 129.853 372.879 130.371 372.274 131.026C371.692 131.702 371.257 132.489 370.96 133.324C370.691 134.17 370.549 135.051 370.515 135.937C370.449 137.711 370.78 139.469 371.242 141.158C372.192 144.542 373.741 147.678 375.442 150.624C377.161 153.566 379.072 156.325 381.078 158.917C383.082 161.513 385.173 163.955 387.304 166.251C391.572 170.841 395.98 174.868 400.311 178.374C404.647 181.876 408.907 184.865 412.979 187.291C417.05 189.715 420.906 191.626 424.438 192.931C427.962 194.239 431.154 194.991 433.802 195.095C435.123 195.147 436.306 195.08 437.3 194.856C437.552 194.819 437.783 194.729 438.009 194.673C438.236 194.612 438.453 194.552 438.648 194.462C438.847 194.381 439.037 194.305 439.217 194.232C439.392 194.146 439.551 194.052 439.704 193.97C440.018 193.817 440.259 193.625 440.473 193.469C440.579 193.39 440.682 193.323 440.766 193.251C440.846 193.175 440.918 193.104 440.983 193.042C441.241 192.802 441.377 192.678 441.377 192.678C441.377 192.678 441.252 192.81 440.997 193.064C440.934 193.127 440.862 193.197 440.783 193.276C440.7 193.349 440.597 193.418 440.493 193.499C440.28 193.658 440.04 193.853 439.726 194.011C439.572 194.096 439.413 194.191 439.238 194.279C439.057 194.353 438.867 194.432 438.667 194.514C438.47 194.605 438.253 194.667 438.025 194.731C437.797 194.788 437.564 194.881 437.311 194.919C436.311 195.152 435.123 195.226 433.796 195.18C431.135 195.088 427.932 194.345 424.395 193.044C420.851 191.747 416.984 189.842 412.902 187.422C408.819 185 404.548 182.014 400.202 178.513C395.859 175.009 391.44 170.982 387.162 166.388C385.026 164.088 382.93 161.644 380.919 159.043C378.906 156.446 376.989 153.682 375.263 150.731C373.554 147.777 371.998 144.63 371.039 141.217C370.574 139.515 370.238 137.738 370.306 135.933C370.339 135.031 370.484 134.13 370.76 133.262C371.064 132.401 371.514 131.59 372.115 130.891C372.741 130.213 373.499 129.678 374.318 129.278C375.15 128.904 376.029 128.662 376.92 128.524C378.706 128.253 380.508 128.386 382.252 128.655C385.75 129.219 389.053 130.408 392.182 131.769C395.309 133.148 398.273 134.737 401.082 136.441C403.893 138.142 406.56 139.945 409.086 141.807C414.137 145.534 418.639 149.466 422.616 153.38C426.588 157.3 430.041 161.203 432.912 164.984C435.782 168.763 438.115 172.39 439.807 175.762C441.502 179.129 442.605 182.226 442.999 184.861C443.196 186.173 443.258 187.363 443.141 188.382C443.133 188.638 443.067 188.879 443.036 189.113C442.999 189.346 442.961 189.569 442.894 189.776C442.834 189.984 442.778 190.181 442.725 190.37C442.658 190.553 442.58 190.722 442.513 190.884C442.392 191.215 442.226 191.475 442.091 191.705C442.022 191.819 441.966 191.927 441.902 192.019C441.833 192.106 441.771 192.185 441.715 192.255C441.495 192.537 441.377 192.678 441.377 192.678Z" fill="#ECCEB0"/>
<path d="M454.156 161.824C454.156 161.824 454.137 161.641 454.108 161.285C454.101 161.196 454.094 161.096 454.084 160.985C454.069 160.875 454.038 160.757 454.011 160.627C453.955 160.368 453.904 160.066 453.771 159.742C453.71 159.579 453.655 159.403 453.582 159.222C453.496 159.048 453.404 158.865 453.31 158.672C453.223 158.475 453.102 158.286 452.974 158.089C452.841 157.896 452.73 157.675 452.565 157.479C451.973 156.65 451.135 155.812 450.114 154.973C448.068 153.288 445.186 151.725 441.684 150.355C438.18 148.978 434.03 147.836 429.378 146.936C424.725 146.036 419.556 145.431 413.99 145.158C408.424 144.892 402.455 144.961 396.216 145.546C393.097 145.842 389.912 146.272 386.689 146.876C383.466 147.474 380.205 148.261 376.964 149.311C373.734 150.376 370.493 151.684 367.531 153.576C366.062 154.528 364.646 155.621 363.513 156.986C362.95 157.669 362.467 158.42 362.104 159.231C361.769 160.052 361.566 160.926 361.551 161.819C361.566 162.711 361.766 163.587 362.101 164.408C362.465 165.219 362.945 165.971 363.509 166.654C364.64 168.022 366.058 169.114 367.526 170.067C370.489 171.96 373.731 173.27 376.961 174.334C380.203 175.386 383.465 176.172 386.688 176.772C389.911 177.376 393.097 177.805 396.216 178.101C402.456 178.685 408.426 178.755 413.992 178.488C419.558 178.215 424.728 177.609 429.381 176.71C434.032 175.81 438.183 174.668 441.686 173.291C445.186 171.921 448.07 170.358 450.114 168.673C451.135 167.834 451.971 166.994 452.564 166.167C452.729 165.971 452.84 165.751 452.972 165.557C453.1 165.36 453.223 165.171 453.309 164.974C453.404 164.781 453.495 164.598 453.58 164.423C453.654 164.243 453.709 164.067 453.769 163.904C453.901 163.58 453.954 163.277 454.01 163.018C454.035 162.889 454.068 162.77 454.083 162.661C454.092 162.551 454.1 162.451 454.107 162.361C454.137 162.007 454.156 161.824 454.156 161.824C454.156 161.824 454.151 162.007 454.13 162.365C454.124 162.455 454.118 162.555 454.111 162.666C454.097 162.776 454.068 162.896 454.044 163.027C453.992 163.287 453.942 163.593 453.813 163.919C453.754 164.084 453.7 164.262 453.628 164.443C453.542 164.619 453.454 164.805 453.359 164.999C453.274 165.198 453.152 165.389 453.024 165.588C452.892 165.784 452.781 166.006 452.617 166.203C452.026 167.041 451.188 167.889 450.167 168.736C448.12 170.438 445.235 172.017 441.729 173.401C438.222 174.792 434.066 175.945 429.409 176.855C424.75 177.766 419.574 178.38 414.002 178.661C408.429 178.936 402.45 178.872 396.199 178.292C393.074 177.998 389.883 177.57 386.653 176.967C383.421 176.369 380.152 175.582 376.899 174.529C373.658 173.461 370.401 172.149 367.415 170.241C365.935 169.28 364.502 168.179 363.35 166.787C362.776 166.092 362.284 165.323 361.911 164.491C361.566 163.646 361.359 162.742 361.344 161.82C361.359 160.898 361.569 159.994 361.914 159.15C362.286 158.318 362.78 157.551 363.354 156.855C364.508 155.466 365.939 154.363 367.421 153.404C370.407 151.498 373.662 150.186 376.904 149.12C380.156 148.067 383.424 147.28 386.655 146.683C389.885 146.08 393.076 145.652 396.2 145.358C402.45 144.778 408.429 144.714 414.002 144.989C419.574 145.27 424.75 145.884 429.409 146.794C434.066 147.703 438.222 148.857 441.729 150.248C445.235 151.632 448.12 153.209 450.167 154.912C451.188 155.76 452.026 156.608 452.617 157.445C452.781 157.643 452.892 157.865 453.024 158.061C453.152 158.259 453.274 158.451 453.359 158.651C453.454 158.845 453.544 159.031 453.628 159.207C453.7 159.388 453.755 159.566 453.813 159.731C453.942 160.057 453.992 160.363 454.044 160.623C454.068 160.754 454.099 160.872 454.111 160.984C454.118 161.095 454.124 161.195 454.13 161.285C454.151 161.641 454.156 161.824 454.156 161.824Z" fill="#ECCEB0"/>
<path d="M437.222 123.42C437.222 123.42 437.066 123.322 436.767 123.127C436.693 123.078 436.608 123.023 436.517 122.962C436.421 122.907 436.308 122.859 436.19 122.802C435.952 122.687 435.68 122.542 435.343 122.448C435.176 122.396 435.003 122.331 434.816 122.279C434.626 122.241 434.425 122.2 434.213 122.157C434.005 122.105 433.78 122.085 433.546 122.067C433.312 122.052 433.069 122.006 432.814 122.016C431.794 121.976 430.619 122.124 429.33 122.417C426.745 123.001 423.743 124.322 420.515 126.25C417.279 128.174 413.834 130.757 410.274 133.881C406.712 137.007 403.067 140.723 399.441 144.954C395.82 149.189 392.218 153.949 388.857 159.239C387.18 161.885 385.568 164.666 384.072 167.583C382.569 170.498 381.194 173.556 380.039 176.762C378.901 179.966 377.95 183.33 377.63 186.83C377.484 188.575 377.478 190.363 377.864 192.095C378.058 192.958 378.355 193.8 378.775 194.583C379.217 195.352 379.786 196.047 380.48 196.606C381.195 197.14 382.009 197.518 382.864 197.758C383.727 197.968 384.615 198.049 385.501 198.021C387.275 197.965 389.007 197.514 390.66 196.937C393.971 195.756 396.993 193.994 399.813 192.095C402.63 190.177 405.249 188.082 407.698 185.901C410.151 183.723 412.441 181.469 414.586 179.185C418.872 174.612 422.585 169.936 425.784 165.372C428.978 160.806 431.666 156.35 433.806 152.12C435.945 147.894 437.585 143.913 438.644 140.3C439.706 136.694 440.237 133.459 440.158 130.809C440.12 129.488 439.971 128.312 439.678 127.337C439.624 127.087 439.519 126.864 439.447 126.641C439.371 126.419 439.295 126.207 439.193 126.017C439.099 125.825 439.01 125.64 438.924 125.465C438.827 125.298 438.722 125.146 438.63 124.998C438.456 124.695 438.247 124.469 438.077 124.266C437.991 124.166 437.916 124.069 437.839 123.99C437.757 123.915 437.683 123.848 437.616 123.789C437.355 123.546 437.222 123.42 437.222 123.42C437.222 123.42 437.363 123.537 437.633 123.772C437.701 123.831 437.777 123.897 437.86 123.97C437.939 124.049 438.015 124.145 438.102 124.245C438.275 124.446 438.488 124.671 438.667 124.974C438.761 125.122 438.868 125.273 438.968 125.442C439.055 125.618 439.147 125.802 439.243 125.995C439.347 126.185 439.424 126.398 439.503 126.62C439.578 126.844 439.685 127.068 439.741 127.318C440.041 128.3 440.197 129.48 440.242 130.806C440.334 133.467 439.813 136.714 438.76 140.333C437.711 143.957 436.076 147.947 433.942 152.186C431.807 156.426 429.122 160.894 425.929 165.471C422.731 170.044 419.018 174.73 414.729 179.314C412.582 181.604 410.29 183.864 407.833 186.047C405.38 188.236 402.756 190.338 399.93 192.262C397.1 194.17 394.068 195.94 390.73 197.131C389.063 197.713 387.314 198.17 385.509 198.228C384.608 198.256 383.698 198.173 382.813 197.958C381.934 197.713 381.094 197.323 380.354 196.769C379.635 196.192 379.049 195.473 378.594 194.683C378.164 193.879 377.861 193.019 377.662 192.139C377.27 190.376 377.278 188.569 377.426 186.811C377.748 183.282 378.706 179.906 379.849 176.691C381.009 173.475 382.39 170.41 383.897 167.49C385.399 164.567 387.017 161.783 388.698 159.135C392.069 153.839 395.682 149.076 399.313 144.84C402.95 140.607 406.607 136.893 410.18 133.768C413.752 130.646 417.21 128.067 420.459 126.148C423.7 124.225 426.716 122.911 429.315 122.337C430.61 122.05 431.793 121.906 432.818 121.953C433.074 121.944 433.318 121.992 433.554 122.007C433.789 122.029 434.015 122.05 434.225 122.103C434.436 122.148 434.637 122.19 434.829 122.231C435.016 122.285 435.19 122.352 435.357 122.406C435.695 122.503 435.966 122.652 436.204 122.771C436.323 122.831 436.435 122.88 436.531 122.937C436.622 123 436.705 123.056 436.78 123.107C437.074 123.311 437.222 123.42 437.222 123.42Z" fill="#ECCEB0"/>
<path d="M360.942 180.956C361.615 181.629 361.615 182.719 360.942 183.391C360.27 184.062 359.179 184.062 358.508 183.391C357.836 182.719 357.836 181.628 358.508 180.956C359.181 180.285 360.27 180.285 360.942 180.956Z" fill="#ECCEB0"/>
<path d="M458.077 127.61C458.077 128.56 457.307 129.332 456.355 129.332C455.404 129.332 454.633 128.562 454.633 127.61C454.633 126.659 455.403 125.888 456.355 125.888C457.305 125.888 458.077 126.659 458.077 127.61Z" fill="#ECCEB0"/>
<path d="M371.813 186.618C371.813 186.86 371.618 187.056 371.375 187.056C371.133 187.056 370.938 186.86 370.938 186.618C370.938 186.376 371.133 186.18 371.375 186.18C371.618 186.18 371.813 186.376 371.813 186.618Z" fill="#ECCEB0"/>
<path d="M381.153 138.377C381.153 138.619 380.957 138.815 380.715 138.815C380.473 138.815 380.277 138.619 380.277 138.377C380.277 138.135 380.473 137.939 380.715 137.939C380.957 137.939 381.153 138.135 381.153 138.377Z" fill="#ECCEB0"/>
<path d="M449.427 161.824C449.427 162.066 449.231 162.262 448.989 162.262C448.746 162.262 448.551 162.066 448.551 161.824C448.551 161.582 448.746 161.386 448.989 161.386C449.231 161.388 449.427 161.583 449.427 161.824Z" fill="#ECCEB0"/>
<path d="M455.509 141.428C455.509 141.67 455.313 141.866 455.071 141.866C454.829 141.866 454.633 141.67 454.633 141.428C454.633 141.186 454.829 140.99 455.071 140.99C455.313 140.99 455.509 141.186 455.509 141.428Z" fill="#ECCEB0"/>
<path d="M426.022 171.445H420.611V141.997C420.611 135.065 414.972 129.426 408.04 129.426C401.109 129.426 395.47 135.065 395.47 141.997V171.445H390.059V141.997C390.059 132.082 398.125 124.015 408.039 124.015C417.953 124.015 426.02 132.082 426.02 141.997V171.445H426.022Z" fill="#ECCEB0"/>
<g opacity="0.3">
<path d="M426.022 171.445H420.611V141.997C420.611 135.065 414.972 129.426 408.04 129.426C401.109 129.426 395.47 135.065 395.47 141.997V171.445H390.059V141.997C390.059 132.082 398.125 124.015 408.039 124.015C417.953 124.015 426.02 132.082 426.02 141.997V171.445H426.022Z" fill="#4F3C52"/>
</g>
<path d="M429.101 189.438H386.979C385.228 189.438 383.809 188.019 383.809 186.267V161.516C383.809 159.764 385.228 158.345 386.979 158.345H429.101C430.853 158.345 432.272 159.764 432.272 161.516V186.267C432.272 188.017 430.853 189.438 429.101 189.438Z" fill="#ECCEB0"/>
<g opacity="0.3">
<path d="M412.09 169.84C412.09 167.603 410.276 165.789 408.039 165.789C405.802 165.789 403.988 167.603 403.988 169.84C403.988 171.692 405.237 173.236 406.934 173.719V179.775H409.144V173.719C410.841 173.236 412.09 171.692 412.09 169.84Z" fill="#4F3C52"/>
</g>
<path d="M386.393 186.49C386.282 186.49 386.191 181.304 386.191 174.909C386.191 168.512 386.282 163.328 386.393 163.328C386.504 163.328 386.594 168.512 386.594 174.909C386.593 181.304 386.503 186.49 386.393 186.49Z" fill="#FAFAFA"/>
<path d="M404.866 175.033C404.854 175.052 404.676 174.969 404.392 174.764C404.106 174.56 403.726 174.209 403.347 173.699C402.591 172.708 401.901 170.909 402.349 168.966C402.819 167.027 404.244 165.729 405.363 165.181C405.929 164.895 406.426 164.753 406.774 164.698C407.122 164.642 407.316 164.647 407.319 164.67C407.336 164.746 406.55 164.819 405.5 165.43C404.465 166.014 403.174 167.266 402.74 169.057C402.325 170.851 402.918 172.55 403.581 173.536C404.247 174.555 404.916 174.972 404.866 175.033Z" fill="#FAFAFA"/>
<path d="M479.991 243.936H330.771C323.525 243.936 317.652 238.063 317.652 230.818V229.203C317.652 221.957 323.525 216.084 330.771 216.084H479.991C487.236 216.084 493.109 221.957 493.109 229.203V230.818C493.109 238.062 487.236 243.936 479.991 243.936Z" fill="#FBF8F3"/>
<path d="M481.284 282.127H332.064C324.818 282.127 318.945 276.254 318.945 269.008V267.393C318.945 260.148 324.818 254.275 332.064 254.275H481.284C488.529 254.275 494.402 260.148 494.402 267.393V269.008C494.402 276.254 488.528 282.127 481.284 282.127Z" fill="#FBF8F3"/>
<path d="M345.383 229.79V225.756H347.051V229.728C347.051 231.096 347.648 231.662 348.656 231.662C349.676 231.662 350.263 231.096 350.263 229.728V225.756H351.909V229.79C351.909 231.909 350.695 233.083 348.648 233.083C346.598 233.083 345.383 231.91 345.383 229.79Z" fill="#060606"/>
<path d="M352.906 232.445L353.441 231.292C353.935 231.612 354.686 231.827 355.365 231.827C356.105 231.827 356.384 231.632 356.384 231.323C356.384 230.418 353.04 231.344 353.04 229.131C353.04 228.081 353.988 227.34 355.603 227.34C356.363 227.34 357.208 227.515 357.733 227.824L357.198 228.966C356.652 228.658 356.107 228.555 355.603 228.555C354.882 228.555 354.573 228.782 354.573 229.07C354.573 230.017 357.919 229.101 357.919 231.282C357.919 232.312 356.961 233.042 355.305 233.042C354.366 233.042 353.42 232.785 352.906 232.445Z" fill="#060606"/>
<path d="M364.299 230.644H360.11C360.263 231.334 360.849 231.755 361.694 231.755C362.281 231.755 362.703 231.581 363.084 231.22L363.937 232.147C363.423 232.734 362.65 233.042 361.652 233.042C359.738 233.042 358.492 231.838 358.492 230.191C358.492 228.534 359.758 227.341 361.448 227.341C363.072 227.341 364.328 228.433 364.328 230.212C364.33 230.336 364.309 230.511 364.299 230.644ZM360.09 229.708H362.818C362.705 229.008 362.18 228.555 361.459 228.555C360.728 228.555 360.203 228.997 360.09 229.708Z" fill="#060606"/>
<path d="M368.837 227.341V228.824C368.702 228.814 368.6 228.803 368.476 228.803C367.591 228.803 367.004 229.286 367.004 230.346V232.959H365.398V227.423H366.932V228.154C367.322 227.619 367.981 227.341 368.837 227.341Z" fill="#060606"/>
<path d="M375.453 229.79V232.959H373.848V230.036C373.848 229.141 373.435 228.73 372.726 228.73C371.954 228.73 371.398 229.203 371.398 230.222V232.959H369.793V227.423H371.326V228.071C371.759 227.598 372.408 227.34 373.158 227.34C374.466 227.341 375.453 228.103 375.453 229.79Z" fill="#060606"/>
<path d="M381.804 229.801V232.961H380.303V232.271C380.005 232.775 379.429 233.042 378.615 233.042C377.318 233.042 376.547 232.321 376.547 231.365C376.547 230.388 377.235 229.708 378.924 229.708H380.199C380.199 229.018 379.787 228.617 378.924 228.617C378.336 228.617 377.73 228.813 377.328 229.132L376.752 228.01C377.359 227.578 378.253 227.341 379.139 227.341C380.826 227.341 381.804 228.123 381.804 229.801ZM380.199 231.21V230.644H379.098C378.348 230.644 378.111 230.922 378.111 231.292C378.111 231.693 378.45 231.961 379.017 231.961C379.55 231.961 380.013 231.715 380.199 231.21Z" fill="#060606"/>
<path d="M392.609 229.79V232.959H391.004V230.036C391.004 229.141 390.602 228.73 389.953 228.73C389.232 228.73 388.73 229.193 388.73 230.18V232.959H387.123V230.036C387.123 229.141 386.742 228.73 386.074 228.73C385.363 228.73 384.859 229.193 384.859 230.18V232.959H383.254V227.423H384.787V228.061C385.198 227.588 385.815 227.34 386.526 227.34C387.298 227.34 387.957 227.638 388.348 228.245C388.79 227.679 389.51 227.34 390.345 227.34C391.662 227.341 392.609 228.103 392.609 229.79Z" fill="#060606"/>
<path d="M399.504 230.644H395.316C395.469 231.334 396.055 231.755 396.9 231.755C397.487 231.755 397.909 231.581 398.289 231.22L399.143 232.147C398.629 232.734 397.856 233.042 396.857 233.042C394.944 233.042 393.699 231.838 393.699 230.191C393.699 228.534 394.964 227.341 396.653 227.341C398.278 227.341 399.534 228.433 399.534 230.212C399.534 230.336 399.514 230.511 399.504 230.644ZM395.296 229.708H398.022C397.909 229.008 397.384 228.555 396.663 228.555C395.934 228.555 395.409 228.997 395.296 229.708Z" fill="#060606"/>
<path d="M410.115 230.14C410.115 231.982 409.271 233.032 408.005 233.032C407.306 233.032 406.811 232.724 406.596 232.137C406.236 232.714 405.648 233.032 404.836 233.032C403.508 233.032 402.458 231.982 402.458 230.429C402.458 228.884 403.497 227.836 404.836 227.836C405.515 227.836 406.05 228.072 406.421 228.514V227.906H407.82V231.24C407.82 231.734 408.036 231.899 408.315 231.899C408.788 231.899 409.077 231.354 409.077 230.16C409.077 228.072 407.532 226.63 405.247 226.63C402.952 226.63 401.419 228.195 401.419 230.346C401.419 232.538 402.921 234.093 405.206 234.093C405.855 234.093 406.585 233.959 407.234 233.639L407.562 234.585C406.935 234.905 406.019 235.08 405.205 235.08C402.231 235.08 400.266 233.062 400.266 230.346C400.266 227.66 402.251 225.653 405.246 225.653C408.139 225.653 410.115 227.557 410.115 230.14ZM406.443 230.429C406.443 229.534 405.896 229.03 405.156 229.03C404.405 229.03 403.88 229.555 403.88 230.429C403.88 231.313 404.405 231.848 405.156 231.848C405.896 231.848 406.443 231.334 406.443 230.429Z" fill="#060606"/>
<path d="M420.613 229.79V232.959H419.007V230.036C419.007 229.141 418.606 228.73 417.957 228.73C417.236 228.73 416.734 229.193 416.734 230.18V232.959H415.127V230.036C415.127 229.141 414.745 228.73 414.078 228.73C413.367 228.73 412.863 229.193 412.863 230.18V232.959H411.258V227.423H412.791V228.061C413.202 227.588 413.819 227.34 414.53 227.34C415.302 227.34 415.961 227.638 416.352 228.245C416.794 227.679 417.514 227.34 418.348 227.34C419.666 227.341 420.613 228.103 420.613 229.79Z" fill="#060606"/>
<path d="M426.953 229.801V232.961H425.452V232.271C425.153 232.775 424.577 233.042 423.764 233.042C422.467 233.042 421.695 232.321 421.695 231.365C421.695 230.388 422.384 229.708 424.072 229.708H425.348C425.348 229.018 424.937 228.617 424.072 228.617C423.485 228.617 422.878 228.813 422.477 229.132L421.901 228.01C422.508 227.578 423.402 227.341 424.287 227.341C425.976 227.341 426.953 228.123 426.953 229.801ZM425.348 231.21V230.644H424.247C423.496 230.644 423.26 230.922 423.26 231.292C423.26 231.693 423.599 231.961 424.165 231.961C424.699 231.961 425.162 231.715 425.348 231.21Z" fill="#060606"/>
<path d="M428.211 225.756C428.211 225.252 428.612 224.86 429.209 224.86C429.806 224.86 430.207 225.231 430.207 225.725C430.207 226.26 429.806 226.651 429.209 226.651C428.612 226.651 428.211 226.26 428.211 225.756ZM428.405 227.423H430.01V232.959H428.405V227.423Z" fill="#060606"/>
<path d="M431.5 225.324H433.105V232.959H431.5V225.324Z" fill="#060606"/>
<path d="M434.207 232.034C434.207 231.437 434.649 231.046 435.205 231.046C435.763 231.046 436.204 231.437 436.204 232.034C436.204 232.62 435.761 233.042 435.205 233.042C434.651 233.042 434.207 232.62 434.207 232.034Z" fill="#060606"/>
<path d="M436.812 230.191C436.812 228.524 438.099 227.341 439.9 227.341C441.063 227.341 441.98 227.845 442.381 228.751L441.135 229.42C440.837 228.894 440.394 228.658 439.889 228.658C439.077 228.658 438.439 229.224 438.439 230.191C438.439 231.158 439.077 231.724 439.889 231.724C440.393 231.724 440.837 231.498 441.135 230.963L442.381 231.641C441.98 232.526 441.063 233.041 439.9 233.041C438.099 233.042 436.812 231.858 436.812 230.191Z" fill="#060606"/>
<path d="M442.82 230.191C442.82 228.524 444.106 227.341 445.866 227.341C447.626 227.341 448.901 228.524 448.901 230.191C448.901 231.858 447.626 233.042 445.866 233.042C444.106 233.042 442.82 231.858 442.82 230.191ZM447.277 230.191C447.277 229.234 446.67 228.658 445.867 228.658C445.065 228.658 444.447 229.234 444.447 230.191C444.447 231.149 445.065 231.724 445.867 231.724C446.67 231.724 447.277 231.149 447.277 230.191Z" fill="#060606"/>
<path d="M459.331 229.79V232.959H457.726V230.036C457.726 229.141 457.325 228.73 456.676 228.73C455.955 228.73 455.452 229.193 455.452 230.18V232.959H453.846V230.036C453.846 229.141 453.464 228.73 452.797 228.73C452.086 228.73 451.582 229.193 451.582 230.18V232.959H449.977V227.423H451.51V228.061C451.921 227.588 452.538 227.34 453.249 227.34C454.02 227.34 454.679 227.638 455.071 228.245C455.511 227.679 456.232 227.34 457.067 227.34C458.385 227.341 459.331 228.103 459.331 229.79Z" fill="#060606"/>
<path d="M366.887 268.351L369.493 269.762L368.321 271.723L365.691 270.168L365.739 273.062H363.491L363.516 270.145L360.886 271.723L359.738 269.762L362.344 268.351L359.738 266.916L360.886 264.955L363.516 266.533L363.491 263.616H365.739L365.691 266.533L368.321 264.955L369.493 266.916L366.887 268.351Z" fill="#060606"/>
<path d="M377.738 268.351L380.344 269.762L379.173 271.723L376.543 270.168L376.591 273.062H374.342L374.367 270.145L371.737 271.723L370.59 269.762L373.197 268.351L370.59 266.916L371.737 264.955L374.367 266.533L374.342 263.616H376.591L376.543 266.533L379.173 264.955L380.344 266.916L377.738 268.351Z" fill="#060606"/>
<path d="M388.59 268.351L391.196 269.762L390.025 271.723L387.394 270.168L387.442 273.062H385.194L385.219 270.145L382.589 271.723L381.441 269.762L384.049 268.351L381.441 266.916L382.589 264.955L385.219 266.533L385.194 263.616H387.442L387.394 266.533L390.025 264.955L391.196 266.916L388.59 268.351Z" fill="#060606"/>
<path d="M399.441 268.351L402.048 269.762L400.876 271.723L398.246 270.168L398.294 273.062H396.045L396.071 270.145L393.44 271.723L392.293 269.762L394.901 268.351L392.293 266.916L393.44 264.955L396.071 266.533L396.045 263.616H398.294L398.246 266.533L400.876 264.955L402.048 266.916L399.441 268.351Z" fill="#060606"/>
<path d="M410.293 268.351L412.899 269.762L411.728 271.723L409.098 270.168L409.145 273.062H406.897L406.922 270.145L404.292 271.723L403.145 269.762L405.752 268.351L403.145 266.916L404.292 264.955L406.922 266.533L406.897 263.616H409.145L409.098 266.533L411.728 264.955L412.899 266.916L410.293 268.351Z" fill="#060606"/>
<path d="M421.142 268.351L423.748 269.762L422.577 271.723L419.947 270.168L419.994 273.062H417.746L417.77 270.145L415.14 271.723L413.992 269.762L416.6 268.351L413.992 266.916L415.14 264.955L417.77 266.533L417.746 263.616H419.994L419.947 266.533L422.577 264.955L423.748 266.916L421.142 268.351Z" fill="#060606"/>
<path d="M431.992 268.351L434.598 269.762L433.427 271.723L430.797 270.168L430.845 273.062H428.596L428.621 270.145L425.991 271.723L424.844 269.762L427.451 268.351L424.844 266.916L425.991 264.955L428.621 266.533L428.596 263.616H430.845L430.797 266.533L433.427 264.955L434.598 266.916L431.992 268.351Z" fill="#060606"/>
<path d="M442.845 268.351L445.45 269.762L444.278 271.723L441.648 270.168L441.696 273.062H439.448L439.473 270.145L436.843 271.723L435.695 269.762L438.303 268.351L435.695 266.916L436.843 264.955L439.473 266.533L439.448 263.616H441.696L441.648 266.533L444.278 264.955L445.45 266.916L442.845 268.351Z" fill="#060606"/>
<path d="M561.504 472.553H351.676C346.717 472.553 342.695 468.532 342.695 463.573V354.96C342.695 350.001 346.715 345.979 351.676 345.979H561.504C566.463 345.979 570.484 350.001 570.484 354.96V463.573C570.484 468.533 566.463 472.553 561.504 472.553Z" fill="#171717"/>
<path d="M561.505 472.553C561.503 472.514 562.118 472.564 563.277 472.339C564.409 472.09 566.156 471.501 567.798 469.876C568.605 469.065 569.348 467.987 569.832 466.66C570.096 466.004 570.232 465.274 570.335 464.512C570.393 463.747 570.381 462.935 570.377 462.09C570.367 458.711 570.356 454.816 570.343 450.433C570.315 432.878 570.276 407.499 570.227 376.143C570.222 372.222 570.218 368.209 570.214 364.105C570.213 362.053 570.21 359.978 570.208 357.881C570.158 355.782 570.429 353.635 569.57 351.716C568.795 349.794 567.298 348.149 565.407 347.202C564.465 346.726 563.43 346.423 562.37 346.315C561.322 346.236 560.181 346.288 559.079 346.274C554.63 346.277 550.099 346.281 545.489 346.284C527.047 346.293 507.344 346.306 486.61 346.317C445.14 346.326 399.549 346.336 351.694 346.345C350.256 346.353 348.831 346.716 347.568 347.387C346.324 348.089 345.228 349.07 344.458 350.271C343.698 351.472 343.189 352.849 343.099 354.273C343.029 355.695 343.08 357.218 343.064 358.682C343.064 364.592 343.063 370.462 343.063 376.289C343.061 387.945 343.058 399.429 343.057 410.714C343.054 421.997 343.051 433.083 343.047 443.938C343.046 449.366 343.043 454.736 343.042 460.046C343.051 461.365 343.019 462.714 343.061 463.999C343.12 465.268 343.463 466.515 344.053 467.631C345.238 469.867 347.433 471.505 349.876 472.022C351.083 472.307 352.371 472.188 353.669 472.215C354.957 472.215 356.242 472.216 357.521 472.216C360.081 472.218 362.624 472.219 365.15 472.221C370.202 472.224 375.186 472.226 380.097 472.229C389.921 472.236 399.459 472.242 408.68 472.247C427.122 472.264 444.299 472.278 459.983 472.293C491.339 472.342 516.716 472.381 534.269 472.409C543.03 472.439 549.835 472.463 554.465 472.478C556.765 472.494 558.52 472.507 559.717 472.515C560.9 472.529 561.505 472.553 561.505 472.553C561.505 472.553 560.9 472.578 559.716 472.591C558.519 472.599 556.762 472.611 554.464 472.628C549.833 472.643 543.028 472.667 534.268 472.697C516.714 472.725 491.338 472.764 459.982 472.813C444.298 472.828 427.12 472.842 408.678 472.859C399.457 472.864 389.92 472.87 380.096 472.877C375.183 472.88 370.2 472.882 365.149 472.885C362.623 472.887 360.08 472.888 357.52 472.89C356.24 472.89 354.956 472.891 353.668 472.891C352.398 472.864 351.071 472.992 349.735 472.687C347.099 472.131 344.731 470.366 343.45 467.954C342.812 466.751 342.442 465.402 342.377 464.035C342.331 462.683 342.363 461.382 342.353 460.047C342.352 454.738 342.349 449.366 342.347 443.94C342.345 433.084 342.342 421.999 342.339 410.715C342.338 399.431 342.335 387.946 342.333 376.291C342.333 370.463 342.332 364.593 342.332 358.684C342.349 357.194 342.294 355.755 342.369 354.216C342.467 352.674 343.016 351.175 343.843 349.873C344.68 348.569 345.866 347.503 347.218 346.744C348.588 346.015 350.139 345.62 351.694 345.613C399.547 345.623 445.138 345.633 486.61 345.641C507.344 345.653 527.047 345.664 545.489 345.675C550.099 345.678 554.632 345.682 559.079 345.685C560.202 345.702 561.276 345.649 562.428 345.734C563.56 345.851 564.664 346.177 565.668 346.686C567.682 347.7 569.273 349.454 570.096 351.503C570.515 352.525 570.735 353.621 570.753 354.712C570.756 355.773 570.759 356.829 570.763 357.88C570.762 359.976 570.759 362.05 570.757 364.103C570.753 368.208 570.749 372.222 570.745 376.142C570.695 407.498 570.656 432.877 570.628 450.432C570.615 454.815 570.604 458.711 570.594 462.089C570.593 462.932 570.6 463.743 570.534 464.532C570.422 465.31 570.276 466.055 570.003 466.722C569.497 468.071 568.73 469.164 567.901 469.979C566.215 471.614 564.435 472.183 563.291 472.411C562.702 472.502 562.257 472.554 561.956 472.547C561.658 472.559 561.505 472.553 561.505 472.553Z" fill="#ECCEB0"/>
<path d="M422.06 390.705V392.286H415.469V383.773H421.901V385.354H417.426V387.203H421.378V388.736H417.426V390.705H422.06Z" fill="#ECCEB0"/>
<path d="M431.44 383.773V392.286H429.824L425.579 387.117V392.286H423.633V383.773H425.262L429.494 388.942V383.773H431.44Z" fill="#ECCEB0"/>
<path d="M435.221 385.378H432.496V383.772H439.915V385.378H437.19V392.284H435.221V385.378Z" fill="#ECCEB0"/>
<path d="M447.567 390.705V392.286H440.977V383.773H447.408V385.354H442.934V387.203H446.886V388.736H442.934V390.705H447.567Z" fill="#ECCEB0"/>
<path d="M454.559 392.286L452.917 389.913H452.821H451.106V392.286H449.137V383.773H452.821C455.094 383.773 456.517 384.953 456.517 386.862C456.517 388.138 455.873 389.074 454.767 389.549L456.675 392.284H454.559V392.286ZM452.712 385.378H451.106V388.345H452.712C453.915 388.345 454.524 387.784 454.524 386.861C454.524 385.926 453.915 385.378 452.712 385.378Z" fill="#ECCEB0"/>
<path d="M460.984 388.029C460.984 385.464 462.954 383.627 465.605 383.627C467.077 383.627 468.305 384.162 469.107 385.134L467.843 386.302C467.271 385.644 466.553 385.305 465.701 385.305C464.109 385.305 462.977 386.423 462.977 388.029C462.977 389.634 464.109 390.754 465.701 390.754C466.552 390.754 467.27 390.413 467.843 389.744L469.107 390.911C468.305 391.896 467.077 392.431 465.593 392.431C462.954 392.431 460.984 390.595 460.984 388.029Z" fill="#ECCEB0"/>
<path d="M469.719 388.029C469.719 385.499 471.689 383.627 474.376 383.627C477.052 383.627 479.034 385.486 479.034 388.029C479.034 390.571 477.053 392.431 474.376 392.431C471.689 392.431 469.719 390.558 469.719 388.029ZM477.039 388.029C477.039 386.412 475.897 385.305 474.375 385.305C472.856 385.305 471.711 386.41 471.711 388.029C471.711 389.646 472.856 390.754 474.375 390.754C475.897 390.754 477.039 389.647 477.039 388.029Z" fill="#ECCEB0"/>
<path d="M480.52 383.773H484.386C487.171 383.773 489.08 385.451 489.08 388.029C489.08 390.607 487.172 392.284 484.386 392.284H480.52V383.773ZM484.29 390.668C485.98 390.668 487.086 389.658 487.086 388.029C487.086 386.4 485.98 385.391 484.29 385.391H482.491V390.668H484.29Z" fill="#ECCEB0"/>
<path d="M497.157 390.705V392.286H490.566V383.773H496.998V385.354H492.524V387.203H496.476V388.736H492.524V390.705H497.157Z" fill="#ECCEB0"/>
<path d="M389.763 449.204H369.088C366.014 449.204 363.523 446.713 363.523 443.64V411.44C363.523 408.366 366.014 405.876 369.088 405.876H389.763C392.837 405.876 395.327 408.368 395.327 411.44V443.64C395.327 446.712 392.835 449.204 389.763 449.204Z" fill="#F5F6F8"/>
<path d="M429.478 449.204H408.803C405.729 449.204 403.238 446.713 403.238 443.64V411.44C403.238 408.366 405.729 405.876 408.803 405.876H429.478C432.551 405.876 435.042 408.368 435.042 411.44V443.64C435.042 446.712 432.551 449.204 429.478 449.204Z" fill="#F5F6F8"/>
<path d="M469.191 449.204H448.518C445.444 449.204 442.953 446.713 442.953 443.64V411.44C442.953 408.366 445.445 405.876 448.518 405.876H469.191C472.265 405.876 474.756 408.368 474.756 411.44V443.64C474.757 446.712 472.265 449.204 469.191 449.204Z" fill="#F5F6F8"/>
<path d="M508.911 449.204H488.236C485.163 449.204 482.672 446.713 482.672 443.64V411.44C482.672 408.366 485.164 405.876 488.236 405.876H508.911C511.985 405.876 514.476 408.368 514.476 411.44V443.64C514.476 446.712 511.985 449.204 508.911 449.204Z" fill="#F5F6F8"/>
<path d="M548.626 449.204H527.951C524.878 449.204 522.387 446.713 522.387 443.64V411.44C522.387 408.366 524.878 405.876 527.951 405.876H548.626C551.7 405.876 554.191 408.368 554.191 411.44V443.64C554.192 446.712 551.7 449.204 548.626 449.204Z" fill="#F5F6F8"/>
<path d="M386.352 430.887C386.352 433.981 383.96 435.987 380.72 435.987C376.274 435.987 373.93 432.797 373.93 427.504C373.93 421.776 376.975 418.827 381.447 418.827C382.896 418.827 384.25 419.069 385.289 419.697L384.781 420.688C383.912 420.132 382.727 419.914 381.447 419.914C377.652 419.914 375.162 422.404 375.162 427.31C375.162 427.817 375.187 428.567 375.308 429.34C376.009 427.117 378.135 425.859 380.698 425.859C384.081 425.859 386.352 427.842 386.352 430.887ZM385.119 430.91C385.119 428.494 383.38 426.923 380.528 426.923C377.747 426.923 375.837 428.687 375.837 430.959C375.837 432.94 377.506 434.921 380.673 434.921C383.307 434.923 385.119 433.353 385.119 430.91Z" fill="#060606"/>
<path d="M425.644 431.177H422.091V435.866H420.883V431.177H411.238V430.282L420.423 418.946H421.8L412.786 430.089H420.907V425.955H422.091V430.089H425.644V431.177Z" fill="#060606"/>
<path d="M466.604 438.267C466.604 438.47 463.303 438.633 459.234 438.633C455.162 438.633 451.863 438.468 451.863 438.267C451.863 438.064 455.162 437.901 459.234 437.901C463.303 437.901 466.604 438.065 466.604 438.267Z" fill="#060606"/>
<path d="M357.159 362.06C359.064 362.06 360.607 360.516 360.607 358.612C360.607 356.708 359.064 355.164 357.159 355.164C355.255 355.164 353.711 356.708 353.711 358.612C353.711 360.516 355.255 362.06 357.159 362.06Z" fill="#ECCEB0"/>
<path d="M370.549 358.612C370.549 360.517 369.006 362.06 367.1 362.06C365.195 362.06 363.652 360.516 363.652 358.612C363.652 356.708 365.195 355.164 367.1 355.164C369.006 355.164 370.549 356.707 370.549 358.612Z" fill="#ECCEB0"/>
<path d="M376.858 362.06C378.763 362.06 380.307 360.516 380.307 358.612C380.307 356.708 378.763 355.164 376.858 355.164C374.954 355.164 373.41 356.708 373.41 358.612C373.41 360.516 374.954 362.06 376.858 362.06Z" fill="#ECCEB0"/>
<path d="M570.828 368.33C570.828 368.533 519.828 368.696 456.93 368.696C394.01 368.696 343.02 368.531 343.02 368.33C343.02 368.127 394.009 367.964 456.93 367.964C519.828 367.963 570.828 368.127 570.828 368.33Z" fill="#ECCEB0"/>
<path d="M314.965 190.578H205.287C202.136 190.578 199.582 193.133 199.582 196.284V246.249C199.582 249.4 202.136 251.955 205.287 251.955H251.299L261.072 264.487L269.217 251.955H314.966C318.117 251.955 320.671 249.4 320.671 246.249V196.284C320.67 193.133 318.116 190.578 314.965 190.578Z" fill="#171717"/>
<path d="M314.964 190.578C314.964 190.578 315.146 190.569 315.506 190.577C315.863 190.614 316.406 190.664 317.071 190.925C317.73 191.175 318.529 191.612 319.24 192.392C319.961 193.149 320.574 194.276 320.743 195.651C320.848 201.095 320.83 209.005 320.875 219.03C320.888 224.041 320.902 229.574 320.916 235.577C320.922 238.579 320.929 241.699 320.934 244.93C320.92 245.727 320.993 246.558 320.823 247.421C320.66 248.267 320.297 249.079 319.78 249.783C318.758 251.207 317.047 252.159 315.232 252.223C301.434 252.243 285.958 252.267 269.216 252.291L269.499 252.138C266.942 256.079 264.179 260.335 261.363 264.676L261.096 265.087L260.794 264.7C257.708 260.746 254.391 256.495 251.016 252.173L251.297 252.311C238.624 252.314 225.362 252.316 211.755 252.319C210.167 252.319 208.583 252.319 207.005 252.319C206.202 252.305 205.459 252.354 204.601 252.278C203.769 252.185 202.958 251.915 202.239 251.493C200.793 250.656 199.727 249.206 199.368 247.584C199.17 246.762 199.224 245.938 199.216 245.182V242.857C199.217 236.671 199.22 230.574 199.221 224.583C199.224 218.592 199.227 212.708 199.23 206.945C199.231 204.064 199.234 201.213 199.235 198.394L199.237 196.286C199.241 195.544 199.377 194.804 199.645 194.117C200.174 192.737 201.222 191.581 202.519 190.915C203.166 190.581 203.872 190.36 204.593 190.286C205.332 190.218 205.989 190.253 206.674 190.245C208.032 190.246 209.383 190.248 210.723 190.249C213.405 190.252 216.051 190.255 218.659 190.257C223.874 190.264 228.937 190.27 233.831 190.276C243.62 190.293 252.739 190.307 261.066 190.321C277.699 190.37 291.166 190.409 300.501 190.438C305.139 190.467 308.747 190.491 311.223 190.507C312.431 190.522 313.359 190.535 314.011 190.543C314.643 190.553 314.964 190.578 314.964 190.578C314.964 190.578 314.642 190.604 314.014 190.616C313.361 190.625 312.434 190.638 311.226 190.653C308.749 190.669 305.142 190.692 300.504 190.722C291.169 190.75 277.702 190.79 261.069 190.839C252.742 190.853 243.622 190.867 233.834 190.884C228.938 190.89 223.875 190.895 218.661 190.902C216.054 190.905 213.408 190.908 210.726 190.911C209.386 190.912 208.035 190.914 206.677 190.915C206.003 190.923 205.295 190.894 204.672 190.954C204.031 191.022 203.406 191.219 202.831 191.516C201.681 192.11 200.752 193.138 200.286 194.363C200.05 194.974 199.929 195.629 199.927 196.289L199.928 198.397C199.929 201.216 199.932 204.067 199.934 206.948C199.936 212.711 199.939 218.595 199.942 224.586C199.943 230.577 199.946 236.674 199.948 242.86V245.185C199.955 245.976 199.91 246.725 200.083 247.426C200.398 248.851 201.337 250.127 202.609 250.862C203.242 251.232 203.953 251.47 204.686 251.552C205.395 251.618 206.232 251.576 207.007 251.588C208.586 251.588 210.17 251.588 211.758 251.588C225.365 251.591 238.627 251.594 251.3 251.597H251.475L251.582 251.735C254.953 256.062 258.266 260.315 261.348 264.272L260.779 264.296C263.602 259.959 266.37 255.707 268.933 251.77L269.033 251.615H269.216C285.948 251.631 301.415 251.645 315.207 251.657C316.851 251.604 318.403 250.748 319.336 249.458C319.808 248.819 320.142 248.084 320.292 247.315C320.451 246.559 320.387 245.744 320.403 244.93C320.411 241.699 320.416 238.579 320.422 235.577C320.437 229.574 320.451 224.042 320.463 219.03C320.489 209.034 320.511 201.119 320.525 195.675C320.378 194.35 319.805 193.251 319.117 192.503C318.439 191.734 317.669 191.291 317.029 191.028C315.723 190.514 314.953 190.636 314.964 190.578Z" fill="#999794"/>
<path d="M239.592 204.678V206.528H238.384V204.665L236.363 201.31H237.646L239.04 203.628L240.434 201.31H241.619L239.592 204.678Z" fill="white"/>
<path d="M241.578 203.918C241.578 202.369 242.786 201.22 244.434 201.22C246.074 201.22 247.289 202.361 247.289 203.918C247.289 205.476 246.074 206.617 244.434 206.617C242.786 206.617 241.578 205.469 241.578 203.918ZM246.065 203.918C246.065 202.927 245.366 202.248 244.432 202.248C243.5 202.248 242.799 202.925 242.799 203.918C242.799 204.909 243.5 205.589 244.432 205.589C245.366 205.588 246.065 204.909 246.065 203.918Z" fill="white"/>
<path d="M248.16 204.232V201.31H249.368V204.188C249.368 205.179 249.8 205.589 250.531 205.589C251.269 205.589 251.694 205.179 251.694 204.188V201.31H252.887V204.232C252.887 205.768 252.007 206.617 250.523 206.617C249.04 206.617 248.16 205.766 248.16 204.232Z" fill="white"/>
<path d="M257.412 206.528L256.405 205.075H256.346H255.294V206.528H254.086V201.31H256.346C257.74 201.31 258.611 202.034 258.611 203.204C258.611 203.987 258.216 204.561 257.538 204.851L258.708 206.528H257.412ZM256.278 202.293H255.294V204.112H256.278C257.016 204.112 257.389 203.77 257.389 203.203C257.389 202.628 257.017 202.293 256.278 202.293Z" fill="white"/>
<path d="M261.355 203.918C261.355 202.345 262.564 201.22 264.188 201.22C265.091 201.22 265.843 201.547 266.336 202.144L265.56 202.859C265.209 202.458 264.768 202.248 264.248 202.248C263.272 202.248 262.578 202.934 262.578 203.918C262.578 204.902 263.272 205.589 264.248 205.589C264.77 205.589 265.209 205.381 265.56 204.971L266.336 205.686C265.843 206.292 265.091 206.618 264.181 206.618C262.564 206.617 261.355 205.491 261.355 203.918Z" fill="white"/>
<path d="M266.711 203.918C266.711 202.369 267.919 201.22 269.566 201.22C271.207 201.22 272.422 202.361 272.422 203.918C272.422 205.476 271.207 206.617 269.566 206.617C267.919 206.617 266.711 205.469 266.711 203.918ZM271.2 203.918C271.2 202.927 270.498 202.248 269.566 202.248C268.634 202.248 267.933 202.925 267.933 203.918C267.933 204.909 268.634 205.589 269.566 205.589C270.498 205.588 271.2 204.909 271.2 203.918Z" fill="white"/>
<path d="M273.34 201.309H275.711C277.419 201.309 278.589 202.337 278.589 203.916C278.589 205.498 277.419 206.527 275.711 206.527H273.34V201.309ZM275.652 205.536C276.688 205.536 277.367 204.917 277.367 203.916C277.367 202.918 276.688 202.3 275.652 202.3H274.548V205.536H275.652Z" fill="white"/>
<path d="M283.545 205.558V206.528H279.504V201.31H283.448V202.279H280.705V203.412H283.128V204.351H280.705V205.558H283.545Z" fill="white"/>
<path d="M304.265 240.641H215.987C213.231 240.641 210.996 238.407 210.996 235.65V217.001C210.996 214.244 213.231 212.01 215.987 212.01H304.265C307.022 212.01 309.256 214.244 309.256 217.001V235.65C309.256 238.405 307.022 240.641 304.265 240.641Z" fill="#060606"/>
<path d="M230.97 228.078C230.97 230.614 229.009 232.258 226.355 232.258C222.71 232.258 220.789 229.643 220.789 225.304C220.789 220.61 223.284 218.194 226.949 218.194C228.137 218.194 229.247 218.392 230.099 218.906L229.682 219.718C228.97 219.264 227.998 219.085 226.949 219.085C223.84 219.085 221.799 221.125 221.799 225.146C221.799 225.563 221.818 226.176 221.917 226.811C222.491 224.989 224.234 223.959 226.334 223.959C229.109 223.958 230.97 225.583 230.97 228.078ZM229.961 228.099C229.961 226.118 228.534 224.831 226.197 224.831C223.919 224.831 222.355 226.275 222.355 228.14C222.355 229.763 223.722 231.388 226.315 231.388C228.475 231.387 229.961 230.1 229.961 228.099Z" fill="#ECCEB0"/>
<path d="M249.376 228.316H246.465V232.16H245.473V228.316H237.57V227.584L245.097 218.294H246.227L238.838 227.424H245.493V224.037H246.463V227.424H249.375L249.376 228.316Z" fill="#ECCEB0"/>
<path d="M264.77 228.257C264.77 230.554 263.105 232.258 259.916 232.258C257.876 232.258 255.994 231.506 255.023 230.397L255.539 229.624C256.391 230.594 258.014 231.327 259.916 231.327C262.413 231.327 263.739 230.139 263.739 228.257C263.739 226.395 262.472 225.186 259.698 225.186H258.826V224.454L262.927 219.203H255.537V218.294H264.233V219.006L260.074 224.335C263.224 224.414 264.77 226 264.77 228.257Z" fill="#ECCEB0"/>
<path d="M281.533 218.294V219.006L275.57 232.16H274.461L280.364 219.204H272.58V221.86H271.59V218.295H281.533V218.294Z" fill="#ECCEB0"/>
<path d="M288.605 225.227C288.605 220.888 290.844 218.195 294.032 218.195C297.221 218.195 299.46 220.888 299.46 225.227C299.46 229.565 297.221 232.258 294.032 232.258C290.844 232.258 288.605 229.565 288.605 225.227ZM298.45 225.227C298.45 221.364 296.648 219.126 294.032 219.126C291.417 219.126 289.615 221.364 289.615 225.227C289.615 229.089 291.417 231.327 294.032 231.327C296.648 231.327 298.45 229.089 298.45 225.227Z" fill="#ECCEB0"/>
<path d="M590.52 587.862C608.953 580.038 630.294 564.647 639.814 545.773C619.931 553.761 602.397 568.732 590.52 587.862Z" fill="#363636"/>
<path d="M594.441 558.573C612.875 550.749 634.216 535.357 643.736 516.484C623.853 524.473 606.319 539.443 594.441 558.573Z" fill="#363636"/>
<path d="M599.773 530.085C618.207 522.261 639.548 506.87 649.068 487.996C629.185 495.985 611.651 510.955 599.773 530.085Z" fill="#363636"/>
<path d="M606.461 500.262C623.851 489.943 643.235 471.729 650.458 451.72C631.646 462.404 615.996 479.67 606.461 500.262Z" fill="#363636"/>
<path d="M613.605 477.442C626.279 460.867 638.091 436.204 637.936 414.831C624.061 432.322 615.408 454.591 613.605 477.442Z" fill="#363636"/>
<path d="M610.062 488.29C607.502 465.88 598.785 437.701 583.984 420.895C586.336 444.91 595.61 468.881 610.062 488.29Z" fill="#363636"/>
<path d="M604.102 512.805C599.591 489.698 588.187 461.12 571.383 444.913C575.808 469.707 587.447 493.856 604.102 512.805Z" fill="#363636"/>
<path d="M597.258 542.7C592.747 519.593 581.344 491.015 564.539 474.807C568.964 499.602 580.601 523.751 597.258 542.7Z" fill="#363636"/>
<path d="M591.766 579.402C587.255 556.295 575.851 527.717 559.047 511.509C563.472 536.304 575.111 560.453 591.766 579.402Z" fill="#363636"/>
<path d="M614.462 473.05C614.45 473.047 614.402 473.164 614.32 473.395C614.229 473.668 614.113 474.007 613.971 474.428C613.661 475.394 613.235 476.732 612.693 478.426C611.585 481.898 610.085 486.955 608.332 493.232C606.565 499.506 604.625 507.022 602.621 515.404C600.654 523.794 598.649 533.058 596.801 542.83C594.974 552.61 593.482 561.972 592.268 570.505C591.088 579.043 590.173 586.752 589.537 593.238C588.89 599.724 588.45 604.98 588.22 608.616C588.109 610.392 588.02 611.791 587.957 612.805C587.937 613.25 587.92 613.608 587.906 613.895C587.899 614.141 587.902 614.268 587.913 614.268C587.926 614.27 587.948 614.144 587.979 613.901C588.012 613.615 588.051 613.259 588.1 612.815C588.196 611.806 588.33 610.41 588.498 608.639C588.813 605.011 589.331 599.764 590.042 593.292C590.742 586.818 591.709 579.123 592.924 570.598C594.173 562.078 595.684 552.732 597.507 542.963C599.355 533.201 601.337 523.945 603.266 515.555C605.233 507.173 607.12 499.651 608.823 493.366C610.513 487.076 611.937 482.001 612.962 478.506C613.449 476.795 613.832 475.446 614.109 474.471C614.223 474.041 614.316 473.693 614.391 473.415C614.45 473.178 614.475 473.053 614.462 473.05Z" fill="#363636"/>
<path d="M581.541 600.067C589.357 583.696 595.044 560.681 591.206 542.715C582.535 560.083 579.097 580.483 581.541 600.067Z" fill="#372D29"/>
<path d="M568.537 578.87C576.353 562.499 582.04 539.484 578.202 521.516C569.531 538.885 566.093 559.286 568.537 578.87Z" fill="#372D29"/>
<path d="M556.876 557.315C564.692 540.944 570.379 517.929 566.541 499.962C557.871 517.332 554.434 537.731 556.876 557.315Z" fill="#372D29"/>
<path d="M545.385 534.071C551.199 516.743 554.116 493.124 548.183 475.843C541.64 494.281 540.646 514.993 545.385 534.071Z" fill="#372D29"/>
<path d="M537.91 515.037C537.338 496.602 531.916 473.512 520.469 459.899C520.746 479.661 526.948 499.273 537.91 515.037Z" fill="#372D29"/>
<path d="M541.368 524.176C527.809 511.381 507.188 498.678 488.656 497.016C502.932 510.967 521.681 520.628 541.368 524.176Z" fill="#372D29"/>
<path d="M550.511 543.567C535.315 531.527 512.739 520.224 493.223 520.18C509.26 533.355 529.636 541.673 550.511 543.567Z" fill="#372D29"/>
<path d="M561.937 566.954C546.741 554.914 524.165 543.61 504.648 543.565C520.686 556.741 541.062 565.06 561.937 566.954Z" fill="#372D29"/>
<path d="M577.859 593.873C562.662 581.833 540.087 570.53 520.57 570.486C536.607 583.661 556.984 591.979 577.859 593.873Z" fill="#372D29"/>
<path d="M536.135 511.691C536.124 511.695 536.153 511.798 536.221 511.995C536.306 512.229 536.41 512.515 536.535 512.863C536.846 513.674 537.271 514.78 537.806 516.177C538.913 519.054 540.606 523.182 542.775 528.249C547.113 538.383 553.538 552.211 561.521 567.024C565.526 574.426 569.53 581.372 573.285 587.62C577.074 593.849 580.583 599.398 583.644 603.984C586.691 608.578 589.22 612.253 591.022 614.754C591.898 615.966 592.592 616.926 593.1 617.632C593.322 617.928 593.506 618.171 593.655 618.37C593.783 618.534 593.853 618.615 593.863 618.608C593.873 618.601 593.822 618.506 593.713 618.329C593.579 618.119 593.414 617.864 593.214 617.552C592.731 616.829 592.074 615.845 591.243 614.602C589.508 612.056 587.043 608.342 584.051 603.719C581.045 599.104 577.582 593.535 573.829 587.295C570.107 581.037 566.124 574.091 562.127 566.699C554.155 551.905 547.669 538.132 543.222 528.056C540.997 523.018 539.237 518.923 538.054 516.077C537.469 514.701 537.004 513.612 536.663 512.813C536.511 512.474 536.387 512.198 536.286 511.97C536.197 511.781 536.146 511.687 536.135 511.691Z" fill="#363636"/>
<path d="M544.309 602.042H621.975V617.012H613.995L607.273 659.703H559.266L552.353 617.012H544.309V602.042Z" fill="#ECCEB0"/>
<path d="M544.309 616.7C544.309 616.5 561.571 616.339 582.86 616.339C604.156 616.339 621.413 616.501 621.413 616.7C621.413 616.898 604.156 617.06 582.86 617.06C561.571 617.06 544.309 616.898 544.309 616.7Z" fill="#363636"/>
<path d="M99.4249 659.728H86.8191L82.1445 602.983H96.9891L99.4249 659.728Z" fill="#FBF8F3"/>
<path d="M208.676 659.728H221.283L225.956 602.983H211.112L208.676 659.728Z" fill="#FBF8F3"/>
<path d="M234.617 610.167L72.3644 613.975L67.4266 509.176C66.9436 498.915 75.1325 490.33 85.4053 490.33H223.646C234.076 490.33 242.323 499.17 241.6 509.575L234.617 610.167Z" fill="#171717"/>
<path d="M242.933 508.817C242.933 508.83 242.78 508.843 242.48 508.857C242.141 508.867 241.703 508.879 241.149 508.896C239.931 508.915 238.218 508.94 236.036 508.974C231.545 508.991 225.131 509.013 217.226 509.041C201.345 509.068 179.403 508.889 155.187 509.451C130.956 510.256 108.997 510.118 93.1193 509.878C85.1782 509.752 78.7535 509.597 74.314 509.464C72.133 509.389 70.4209 509.33 69.203 509.289C68.6511 509.262 68.2132 509.241 67.8738 509.224C67.5739 509.206 67.4219 509.189 67.4219 509.176C67.4219 509.164 67.5754 509.154 67.8753 509.148C68.2146 509.147 68.6539 509.144 69.2058 509.14C70.4237 509.148 72.1373 509.161 74.3197 509.176C78.8098 509.22 85.2218 509.281 93.1249 509.357C109.006 509.465 130.942 509.52 155.168 508.716C179.404 508.154 201.348 508.415 217.227 508.52C225.132 508.589 231.544 508.647 236.036 508.685C238.218 508.71 239.931 508.732 241.149 508.746C241.701 508.76 242.141 508.77 242.48 508.778C242.78 508.792 242.933 508.805 242.933 508.817Z" fill="#FBF8F3"/>
<path d="M126.609 491.969C126.654 492.214 121.525 492.302 116.075 495.13C110.584 497.884 107.504 501.986 107.332 501.806C107.268 501.758 107.932 500.678 109.342 499.199C110.743 497.721 112.956 495.905 115.742 494.477C118.533 493.059 121.301 492.333 123.32 492.066C125.344 491.793 126.609 491.889 126.609 491.969Z" fill="#FBF8F3"/>
<path d="M193.339 301.426L213.175 337.658L242.231 321.407L256.36 326.07C256.36 326.07 220.712 364.721 214.928 366.69C209.146 368.658 198.193 369.017 191.93 361.182C186.228 354.047 169.633 316.583 169.633 316.583L193.339 301.426Z" fill="#FFBE9D"/>
<path d="M274.997 277.774C274.48 277.135 273.668 276.813 272.854 276.925L259.036 278.826C257.823 279.014 256.749 279.708 256.08 280.736L227.387 324.837L229.593 326.07L244.871 325.59L275.431 278.315L274.997 277.774Z" fill="#171717"/>
<path d="M265.217 283.502C265.511 283.761 266.029 283.651 266.374 283.259C266.718 282.866 266.758 282.338 266.464 282.08C266.17 281.823 265.652 281.931 265.307 282.324C264.962 282.717 264.922 283.245 265.217 283.502Z" fill="white"/>
<path d="M275.432 278.312C275.439 278.37 274.487 278.555 272.761 278.84C270.892 279.129 268.424 279.512 265.438 279.974C263.876 280.203 262.184 280.451 260.376 280.717C259.506 280.796 258.734 281.245 258.24 281.975C257.709 282.798 257.164 283.643 256.605 284.509C254.345 287.994 251.873 291.804 249.278 295.804C244.058 303.807 239.295 311.026 235.812 316.227C234.115 318.73 232.713 320.799 231.651 322.364C230.653 323.803 230.078 324.585 230.031 324.552C229.983 324.522 230.466 323.681 231.379 322.187C232.385 320.585 233.713 318.467 235.319 315.906C238.676 310.622 243.362 303.352 248.581 295.349C251.196 291.362 253.686 287.563 255.963 284.089C256.535 283.226 257.092 282.383 257.636 281.561C258.241 280.655 259.302 280.101 260.265 280.034C262.079 279.805 263.78 279.589 265.347 279.391C268.352 279.035 270.836 278.74 272.716 278.518C274.457 278.333 275.423 278.256 275.432 278.312Z" fill="#FBF8F3"/>
<path d="M260.105 294.079C260.105 294.079 258.873 293.858 258.199 297.227C257.524 300.597 255.353 310.26 255.353 310.26L248.9 306.831L240.828 307.883C240.828 307.883 239.067 309.511 240.358 310.395C241.65 311.278 246.753 312.19 246.753 312.19L250.517 317.601L239.716 312.394C239.716 312.394 236.113 313.334 237.167 315.533C238.223 317.732 245.505 324.613 245.505 324.613L240.095 324.203L233.66 320.296C233.66 320.296 231.686 320.386 232.422 322.067C233.159 323.749 239.85 329.824 239.85 329.824L247.964 333.761C247.964 333.761 252.393 333.413 252.819 332.112C253.244 330.811 253.352 328.955 253.352 328.955C253.352 328.955 255.704 328.322 256.143 327.181C256.582 326.041 256.299 324.237 256.299 324.237C256.299 324.237 259.99 324.885 260.449 322.828C260.908 320.771 260.522 316.717 260.15 315.134C259.778 313.552 261.724 298.841 261.572 298.397C261.42 297.951 262.418 293.106 260.105 294.079Z" fill="#FFBE9D"/>
<path d="M253.1 332.129C253.127 332.225 252.342 332.57 250.984 332.786C249.629 333.008 247.692 333.029 245.636 332.543C243.58 332.05 241.86 331.157 240.752 330.351C239.635 329.545 239.09 328.883 239.158 328.81C239.311 328.602 241.881 330.828 245.829 331.733C249.757 332.703 253.056 331.873 253.1 332.129Z" fill="#EB996E"/>
<path d="M251.179 329.219C251.052 329.406 249.614 328.653 248.08 327.392C246.542 326.134 245.521 324.872 245.68 324.712C245.844 324.545 247.101 325.518 248.606 326.75C250.11 327.984 251.31 329.026 251.179 329.219Z" fill="#EB996E"/>
<path d="M255.449 322.218C255.326 322.405 253.899 321.67 252.46 320.337C251.016 319.008 250.17 317.643 250.348 317.507C250.531 317.36 251.633 318.447 253.024 319.727C254.41 321.011 255.581 322.024 255.449 322.218Z" fill="#EB996E"/>
<path d="M259.938 316.578C259.717 316.672 258.901 315.148 257.614 313.49C256.342 311.82 255.08 310.641 255.226 310.451C255.352 310.271 256.922 311.215 258.273 312.983C259.636 314.744 260.145 316.503 259.938 316.578Z" fill="#EB996E"/>
<path d="M265.43 577.705C265.478 577.702 265.524 577.225 265.391 576.37C265.251 575.524 264.903 574.287 264.042 572.976C263.821 572.655 263.601 572.31 263.238 571.994C262.894 571.682 262.3 571.442 261.727 571.654C261.443 571.745 261.158 572.006 261.06 572.325C260.953 572.649 261.006 572.97 261.091 573.231C261.278 573.768 261.558 574.151 261.793 574.594C262.317 575.475 262.749 576.352 263.418 577.345C263.756 577.853 264.516 578.271 265.21 578.152C265.893 578.064 266.445 577.735 266.942 577.384C267.907 576.684 268.756 575.887 269.487 575.04C269.851 574.616 270.185 574.178 270.489 573.735C270.776 573.295 271.114 572.848 271.242 572.235C271.372 571.645 271.148 570.869 270.478 570.6C269.798 570.355 269.244 570.696 268.866 570.965C268.097 571.603 267.635 572.258 267.166 572.89C266.272 574.154 265.779 575.313 265.5 576.123C265.227 576.938 265.163 577.41 265.21 577.422C265.348 577.48 265.806 575.6 267.62 573.226C268.07 572.663 268.629 571.979 269.253 571.502C269.571 571.273 269.969 571.127 270.21 571.25C270.465 571.341 270.606 571.723 270.523 572.09C270.444 572.47 270.158 572.877 269.862 573.301C269.568 573.718 269.246 574.129 268.897 574.529C268.197 575.326 267.384 576.079 266.476 576.738C266.038 577.052 265.564 577.311 265.12 577.364C264.675 577.419 264.326 577.243 264.033 576.863C263.477 576.055 262.944 575.055 262.43 574.225C262.183 573.791 261.886 573.37 261.757 573.008C261.621 572.627 261.696 572.38 261.962 572.275C262.573 572.023 263.167 572.712 263.58 573.298C265.296 575.733 265.274 577.754 265.43 577.705Z" fill="#ECCEB0"/>
<path d="M230.827 578.889L213.647 616.124L185.922 603.317L203.692 557.233L230.827 578.889Z" fill="#FFBE9D"/>
<path d="M216.894 613.64L206.856 632.782C206.856 632.782 232.551 659.349 230.138 665.288L169.734 636.327L186.329 597.932L216.894 613.64Z" fill="black"/>
<path d="M189.434 621.208C188.112 620.967 186.675 621.894 186.379 623.205C186.085 624.516 187.014 625.987 188.332 626.25C189.65 626.515 191.41 625.455 191.556 624.119C191.702 622.782 190.516 621.115 189.174 621.176" fill="#E0E0E0"/>
<g opacity="0.6">
<path d="M169.734 636.327L172.248 631.513L229.222 661.081C229.222 661.081 231.351 663.541 230.139 665.288L169.734 636.327Z" fill="white"/>
</g>
<path d="M207.982 632.944C207.831 633.234 206.292 632.661 204.386 632.914C202.474 633.117 201.112 634.036 200.897 633.789C200.653 633.601 201.937 632.048 204.25 631.784C206.561 631.496 208.176 632.703 207.982 632.944Z" fill="#ECCEB0"/>
<path d="M213.06 638.601C212.991 638.919 211.473 638.808 209.872 639.575C208.25 640.296 207.351 641.523 207.063 641.369C206.763 641.283 207.389 639.457 209.395 638.542C211.394 637.608 213.188 638.317 213.06 638.601Z" fill="#ECCEB0"/>
<path d="M213.022 647.909C212.723 647.843 213.02 646.173 214.552 644.922C216.076 643.659 217.772 643.688 217.779 643.994C217.83 644.316 216.519 644.754 215.277 645.802C214.01 646.817 213.329 648.021 213.022 647.909Z" fill="#ECCEB0"/>
<path d="M210.863 625.57C210.611 625.78 209.452 624.724 207.73 624.038C206.022 623.317 204.456 623.254 204.424 622.927C204.355 622.632 206.146 622.147 208.162 622.985C210.184 623.805 211.119 625.407 210.863 625.57Z" fill="#ECCEB0"/>
<path d="M222.553 608.67L267.839 495.333C267.839 495.333 266.821 475.996 263.259 469.889C259.697 463.783 151.815 428.16 151.815 428.16C151.815 428.16 124.335 421.544 106.015 428.16C87.6957 434.775 73.955 457.675 76.4993 470.397C79.0435 483.12 89.7809 492.465 89.7809 492.465L169.116 494.823L212.357 510.599L183.237 594.055L222.553 608.67Z" fill="#ECCEB0"/>
<path d="M262.833 531.223L263.855 572.218L233.324 572.964L228.926 523.769L262.833 531.223Z" fill="#FFBE9D"/>
<path d="M265.673 568.555L265.116 590.162C265.116 590.162 299.899 602.658 300.357 609.051L233.372 609.73L231.312 567.953L265.673 568.555Z" fill="black"/>
<path d="M244.373 587.47C243.08 587.837 242.199 589.304 242.513 590.611C242.827 591.917 244.311 592.827 245.611 592.482C246.909 592.137 248.021 590.41 247.563 589.145C247.104 587.882 245.304 586.911 244.127 587.557" fill="#E0E0E0"/>
<g opacity="0.6">
<path d="M233.371 609.73L233.501 604.301L297.676 605.681C297.676 605.681 300.671 606.948 300.355 609.051L233.371 609.73Z" fill="white"/>
</g>
<path d="M266.197 589.81C266.19 590.136 264.555 590.301 262.957 591.37C261.331 592.396 260.515 593.821 260.213 593.694C259.91 593.634 260.379 591.674 262.338 590.415C264.284 589.138 266.265 589.508 266.197 589.81Z" fill="#ECCEB0"/>
<path d="M273.252 592.644C273.33 592.959 271.919 593.531 270.822 594.925C269.684 596.288 269.42 597.786 269.093 597.775C268.786 597.83 268.541 595.916 269.938 594.208C271.319 592.489 273.242 592.333 273.252 592.644Z" fill="#ECCEB0"/>
<path d="M277.329 601.012C277.031 601.085 276.56 599.455 277.382 597.655C278.192 595.849 279.726 595.126 279.867 595.398C280.054 595.666 279.072 596.636 278.42 598.124C277.734 599.597 277.654 600.977 277.329 601.012Z" fill="#ECCEB0"/>
<path d="M265.527 581.921C265.393 582.221 263.888 581.784 262.041 581.929C260.19 582.036 258.759 582.671 258.584 582.392C258.392 582.157 259.785 580.934 261.963 580.794C264.14 580.637 265.686 581.663 265.527 581.921Z" fill="#ECCEB0"/>
<path d="M245.004 417.407C245.004 417.407 263.297 415.944 265.331 435.791C267.367 455.639 269.365 548.257 269.365 548.257L226.618 551.819L220.003 457.166L151.812 428.16C151.812 428.16 232.791 414.863 245.004 417.407Z" fill="#ECCEB0"/>
<path d="M169.609 390.626C169.609 390.626 180.711 421.751 178.597 425.22C176.482 428.69 147.935 442.962 147.935 442.962L76.5012 470.397C76.5012 470.397 69.1641 458.726 69.1641 440.8C69.1641 422.873 94.011 390.626 94.011 390.626H169.609Z" fill="#ECCEB0"/>
<path d="M148.438 426.572C148.433 426.583 148.546 426.644 148.773 426.752C149.035 426.873 149.368 427.028 149.786 427.221C150.728 427.641 152.051 428.228 153.743 428.981C157.25 430.509 162.287 432.702 168.592 435.449C181.333 440.934 199.19 448.621 219.856 457.517L219.625 457.192C220.272 466.541 220.974 476.639 221.699 487.086C223.436 511.508 225.038 534.025 226.306 551.839L226.328 552.161L226.649 552.133C239.651 550.993 250.319 550.056 257.79 549.4C261.463 549.057 264.348 548.788 266.365 548.599C267.314 548.5 268.057 548.423 268.605 548.367C269.11 548.309 269.369 548.271 269.368 548.255C269.367 548.239 269.105 548.246 268.596 548.271C268.046 548.306 267.3 548.353 266.348 548.412C264.329 548.56 261.438 548.772 257.759 549.041C250.282 549.631 239.606 550.473 226.594 551.501L226.938 551.795C225.714 533.977 224.17 511.456 222.493 487.031C221.758 476.585 221.047 466.487 220.388 457.14L220.371 456.906L220.156 456.814C199.445 448.024 181.548 440.427 168.78 435.007C162.437 432.348 157.371 430.223 153.844 428.744C152.131 428.042 150.793 427.493 149.839 427.1C149.409 426.931 149.066 426.796 148.798 426.692C148.564 426.601 148.442 426.562 148.438 426.572Z" fill="black"/>
<path d="M91.6254 429.686C91.6437 429.738 92.3575 429.54 93.6304 429.139C95.0496 428.681 96.8533 428.1 99.0089 427.404C103.547 425.965 109.843 423.957 117.009 422.856C124.174 421.751 130.804 422.092 135.435 423.093C140.087 424.054 142.761 425.382 142.82 425.231C142.84 425.189 142.194 424.825 140.962 424.291C139.732 423.753 137.895 423.101 135.556 422.541C130.892 421.382 124.143 420.945 116.889 422.066C109.638 423.183 103.329 425.291 98.8273 426.869C96.5745 427.669 94.768 428.354 93.5248 428.844C92.2843 429.337 91.6071 429.634 91.6254 429.686Z" fill="black"/>
<path d="M101.723 413.279C101.742 413.406 104.115 412.942 107.969 413.244C109.892 413.378 112.181 413.673 114.73 413.967C117.274 414.27 120.068 414.612 122.96 415.16C128.763 416.194 133.758 418.217 136.957 420.353C140.187 422.455 141.7 424.371 141.81 424.263C141.841 424.237 141.514 423.724 140.772 422.92C140.032 422.118 138.884 421.006 137.272 419.885C134.09 417.582 128.984 415.421 123.109 414.377C120.18 413.822 117.364 413.5 114.81 413.237C112.257 412.982 109.953 412.744 107.997 412.679C106.044 412.609 104.456 412.721 103.374 412.885C102.292 413.049 101.713 413.233 101.723 413.279Z" fill="black"/>
<path d="M133.273 163.152C125.053 161.755 117.829 164.92 110.896 169.553C103.964 174.187 98.7434 181.179 95.7302 188.952C92.5552 197.14 91.7836 206.352 94.2223 214.789C96.6623 223.224 102.439 230.775 110.269 234.753C120.962 240.184 134.635 238.29 144.201 231.057C153.767 223.824 159.235 211.866 159.694 199.883C160.01 191.627 158.037 183.181 153.424 176.327C148.81 169.474 141.448 164.353 133.273 163.152Z" fill="#372D29"/>
<path d="M109.895 191.102C111.097 187.958 110.631 184.447 111.107 181.114C112.154 173.775 118.068 167.89 124.907 165.029C131.268 162.368 139.039 162.948 146.703 165.426C151.956 167.124 156.901 170.085 160.402 174.353C165.05 180.017 166.689 188.019 164.639 195.053L127.091 189.584C123.575 192.493 119.976 195.45 115.712 197.072C114.461 197.548 113.115 197.906 111.793 197.697C110.471 197.488 109.185 196.589 108.872 195.287C108.53 193.866 109.372 192.469 109.895 191.102Z" fill="#372D29"/>
<path d="M147.508 175.793L114.725 182.739C111.555 182.95 109.072 185.553 109.012 188.731L109.406 259.675C109.433 264.521 111.058 269.224 114.027 273.052L117.153 277.085C124.281 286.277 138.721 285.351 144.165 275.073C144.545 274.354 144.809 273.725 144.92 273.215C145.03 272.578 145.199 272.157 145.228 271.614L145.853 264.698C146.173 258.382 146.217 251.963 146.218 252.022C146.218 252.022 159.634 250.327 163.07 233.042C164.78 224.446 164.897 210.248 164.615 198.628C164.363 188.167 157.947 175.096 147.508 175.793Z" fill="#FFBE9D"/>
<path d="M159.623 211.939C159.619 213.119 158.616 214.088 157.386 214.106C156.157 214.124 155.16 213.185 155.164 212.005C155.168 210.826 156.171 209.855 157.4 209.837C158.632 209.82 159.627 210.761 159.623 211.939Z" fill="#372D29"/>
<path d="M161.249 205.883C160.962 206.164 159.32 204.847 156.919 204.76C154.523 204.639 152.713 205.806 152.464 205.502C152.34 205.367 152.644 204.853 153.432 204.323C154.209 203.797 155.517 203.307 157.012 203.37C158.507 203.436 159.744 204.036 160.445 204.628C161.16 205.223 161.39 205.758 161.249 205.883Z" fill="#372D29"/>
<path d="M138.11 211.401C138.106 212.581 137.103 213.55 135.873 213.568C134.644 213.587 133.648 212.647 133.652 211.469C133.657 210.289 134.659 209.319 135.888 209.301C137.119 209.281 138.114 210.221 138.11 211.401Z" fill="#372D29"/>
<path d="M138.457 205.299C138.168 205.579 136.525 204.263 134.126 204.177C131.729 204.056 129.92 205.222 129.671 204.918C129.548 204.782 129.848 204.268 130.64 203.74C131.417 203.214 132.725 202.723 134.22 202.786C135.714 202.852 136.95 203.452 137.653 204.043C138.367 204.639 138.598 205.174 138.457 205.299Z" fill="#372D29"/>
<path d="M145.66 223.554C145.654 223.417 147.155 223.217 149.585 223.002C150.201 222.962 150.786 222.864 150.905 222.449C151.067 222.011 150.836 221.34 150.567 220.617C150.049 219.112 149.505 217.533 148.935 215.879C146.676 209.137 145.066 203.602 145.339 203.514C145.611 203.425 147.663 208.818 149.922 215.561C150.464 217.222 150.982 218.807 151.476 220.322C151.682 221.028 152.049 221.833 151.702 222.74C151.519 223.192 151.055 223.506 150.658 223.597C150.261 223.702 149.916 223.695 149.612 223.702C147.173 223.738 145.664 223.69 145.66 223.554Z" fill="#372D29"/>
<path d="M146.214 252.021C146.214 252.021 134.484 252.321 123.164 244.903C123.164 244.903 128.552 257.17 146.023 256.218L146.214 252.021Z" fill="#EB996E"/>
<path d="M144.419 229.3C143.6 228.126 142.113 227.44 140.605 227.543C139.559 227.615 138.487 228.075 137.821 228.9C137.155 229.724 136.976 230.923 137.52 231.754C138.132 232.69 139.477 232.952 140.636 232.672C141.794 232.39 142.808 231.675 143.774 230.96C144.042 230.761 144.315 230.556 144.487 230.277C144.66 229.998 144.709 229.628 144.518 229.384" fill="#EB996E"/>
<path d="M138.532 224.941C138.923 224.932 138.826 227.539 140.986 229.475C143.139 231.416 145.928 231.232 145.934 231.596C145.963 231.761 145.296 232.079 144.123 232.065C142.971 232.06 141.307 231.626 139.986 230.442C138.67 229.255 138.143 227.719 138.097 226.647C138.039 225.552 138.354 224.918 138.532 224.941Z" fill="#372D29"/>
<path d="M138.324 198.175C138.062 198.818 135.677 198.415 132.848 198.646C130.014 198.819 127.712 199.556 127.36 198.956C127.204 198.669 127.625 198.072 128.567 197.475C129.502 196.879 130.977 196.336 132.674 196.213C134.372 196.094 135.909 196.422 136.919 196.879C137.937 197.335 138.437 197.869 138.324 198.175Z" fill="#372D29"/>
<path d="M160.96 195.361C160.517 195.889 158.886 195.26 156.898 195.156C154.914 194.983 153.212 195.38 152.847 194.794C152.688 194.511 152.974 193.975 153.73 193.487C154.475 193.002 155.704 192.629 157.068 192.723C158.433 192.82 159.597 193.359 160.267 193.945C160.949 194.531 161.157 195.102 160.96 195.361Z" fill="#372D29"/>
<path d="M103.888 186.04C107.286 176.058 122.125 162.457 132.628 163.4L149.222 173.808C148.092 179.51 143.573 184.406 137.979 185.988C134.992 186.833 131.411 187.011 129.595 189.53C127.739 192.101 128.718 195.919 126.986 198.575C124.585 202.255 118.231 201.952 116.406 205.95C115.609 207.697 115.965 209.809 115.136 211.541C114.032 213.849 108.079 216.683 105.656 215.862C103.234 215.041 103.309 210.889 102.556 208.698C101.267 204.954 101.867 203.039 102.357 200.972C103.516 196.075 102.267 190.802 103.888 186.04Z" fill="#372D29"/>
<path d="M112.807 218.06C112.854 216.764 111.475 213.653 110.204 213.404C106.809 212.739 100.642 212.774 100.248 221.446C99.7101 233.301 111.723 231.396 111.76 231.057C111.787 230.792 112.644 222.532 112.807 218.06Z" fill="#FFBE9D"/>
<path d="M108.343 226.401C108.292 226.36 108.13 226.536 107.774 226.68C107.426 226.819 106.836 226.901 106.228 226.642C104.996 226.125 104.031 224.089 104.071 221.95C104.089 220.869 104.362 219.852 104.783 219.019C105.185 218.168 105.773 217.587 106.408 217.505C107.042 217.388 107.471 217.785 107.601 218.126C107.744 218.465 107.658 218.699 107.72 218.722C107.751 218.754 107.984 218.534 107.91 218.042C107.871 217.804 107.746 217.518 107.478 217.277C107.204 217.033 106.791 216.895 106.349 216.924C105.432 216.946 104.571 217.749 104.109 218.664C103.596 219.58 103.264 220.722 103.243 221.936C103.21 224.328 104.331 226.619 106.024 227.192C106.847 227.447 107.556 227.227 107.927 226.964C108.309 226.687 108.382 226.425 108.343 226.401Z" fill="#EB996E"/>
<path d="M101.349 182.965C101.389 179.257 96.7562 176.831 93.1433 175.99C89.5303 175.151 85.7104 176.249 82.4579 178.032C80.5543 179.074 78.638 180.558 78.2128 182.685C77.7862 184.813 79.8348 187.348 81.8666 186.587C77.9735 187.919 75.9994 193.118 78.027 196.699C80.0545 200.28 85.5288 201.261 88.6729 198.608C87.6577 202.006 85.4415 205.032 82.5086 207.024C88.6067 207.893 95.0821 205.289 98.8794 200.439C102.678 195.588 103.654 188.678 101.349 182.965Z" fill="#372D29"/>
<path d="M93.1199 201.821C93.0354 201.834 92.7186 200.489 92.6763 198.263C92.6285 196.044 92.9579 192.941 94.0421 189.708C95.1361 186.477 96.7525 183.807 98.1323 182.07C99.5122 180.323 100.578 179.444 100.639 179.505C100.857 179.658 96.8792 183.598 94.7869 189.959C92.6045 196.286 93.3874 201.831 93.1199 201.821Z" fill="#FFF1E0"/>
<path d="M145.777 170.223C146.869 175.05 154.204 181.239 157.424 184.997C163.569 192.167 164.78 194.548 164.719 210.576C167.62 205.04 169.841 199.616 169.619 193.371C169.397 187.125 167.096 180.867 162.754 176.373C158.413 171.877 151.963 169.326 145.777 170.223Z" fill="#372D29"/>
<path d="M196.059 302.13C196.059 302.13 183.281 280.826 179.736 276.516C176.411 272.475 172.128 270.092 169.269 268.841C167.678 268.145 166.005 267.666 164.294 267.369L145.918 263.3C145.918 263.3 145.886 275.843 132.744 276.619C119.601 277.394 108.536 259.088 108.536 259.088C108.536 259.088 87.3061 262.371 82.226 264.984C77.1459 267.597 69.1626 270.916 64.771 292.913L61.6875 314.433L98.2941 317.817L101.797 372.213L119.952 384.856C119.952 384.856 170.282 397.94 173.498 398.806C176.714 399.671 177.78 317.817 177.78 317.817C177.78 317.817 190.708 309.459 196.059 302.13Z" fill="#ECCEB0"/>
<path d="M171.965 292.982C172.013 292.964 172.262 293.523 172.672 294.552C173.09 295.577 173.624 297.088 174.218 298.978C175.411 302.752 176.719 308.09 177.459 314.097C178.189 320.106 178.207 325.603 177.961 329.554C177.84 331.529 177.686 333.124 177.527 334.22C177.376 335.317 177.269 335.919 177.22 335.914C177.169 335.908 177.181 335.296 177.244 334.194C177.316 333.095 177.389 331.5 177.443 329.533C177.555 325.597 177.455 320.15 176.731 314.187C175.996 308.228 174.78 302.917 173.72 299.125C173.193 297.229 172.737 295.7 172.402 294.648C172.077 293.592 171.918 292.999 171.965 292.982Z" fill="black"/>
<path d="M170.405 382.086L101.48 367.084L98.2953 317.819L67.6445 314.987C67.6445 314.987 68.778 348.664 69.9579 358.678C71.6531 373.078 80.1659 392.728 85.1446 396.655C90.1247 400.58 173.499 398.81 173.499 398.81L170.405 382.086Z" fill="#FFBE9D"/>
<path d="M209.531 391.016C209.046 391.977 208.038 392.604 206.965 392.511C206.751 392.493 206.527 392.45 206.298 392.376C204.773 391.887 204.917 388.783 204.917 388.783L197.612 387.59C197.612 387.59 188.113 393.715 184.734 397.775C181.355 401.835 172.734 398.547 172.734 398.547L169.746 382.979L183.191 370.821C183.191 370.821 182.366 371.544 183.292 369.271C184.22 366.997 188.444 367.857 188.444 367.857C189.102 366.732 191.862 366.329 191.862 366.329L203.655 367.688C206.085 367.968 208.258 369.334 209.564 371.401L214.551 379.295C214.551 379.295 217.186 384.978 216.762 386.3C216.123 388.294 214.014 387.851 214.014 387.851C214.014 387.851 213.434 391.587 212.452 391.717C211.471 391.846 209.531 391.016 209.531 391.016Z" fill="#FFBE9D"/>
<path d="M184.43 379.833C184.442 379.957 186.011 379.812 188.53 379.921C191.043 380.043 194.52 380.484 198.154 381.722C199.97 382.333 201.645 383.07 203.115 383.843C204.54 384.646 206.027 385.305 206.483 386.343C206.713 386.851 206.61 387.368 206.355 387.748C206.106 388.128 205.767 388.377 205.465 388.5C204.846 388.754 204.444 388.58 204.432 388.652C204.402 388.669 204.798 388.976 205.561 388.776C205.93 388.676 206.357 388.429 206.699 387.99C207.049 387.573 207.251 386.828 206.977 386.144C206.723 385.457 206.137 384.925 205.51 384.487C204.868 384.066 204.195 383.636 203.446 383.232C201.962 382.409 200.254 381.634 198.394 381.008C194.674 379.74 191.097 379.374 188.541 379.387C185.974 379.417 184.417 379.752 184.43 379.833Z" fill="#EB996E"/>
<path d="M183.602 387.353C183.616 387.577 188.414 387.376 194.311 387.722C200.21 388.046 204.955 388.788 204.993 388.569C205.01 388.471 203.843 388.16 201.922 387.822C200.003 387.484 197.327 387.141 194.353 386.97C191.381 386.803 188.683 386.841 186.737 386.959C184.791 387.079 183.596 387.255 183.602 387.353Z" fill="#EB996E"/>
<path d="M209.461 390.717C209.501 390.71 209.553 390.275 209.609 389.461C209.658 388.65 209.708 387.47 209.616 386.007C209.567 385.277 209.488 384.473 209.287 383.615C209.099 382.754 208.688 381.847 208.128 381.046C207.065 379.438 205.588 377.771 203.708 376.52C201.836 375.286 199.963 374.242 198.068 373.669C196.187 373.1 194.428 372.959 192.974 372.893C191.515 372.843 190.341 372.874 189.53 372.905C188.719 372.938 188.271 372.981 188.27 373.033C188.264 373.154 190.068 373.214 192.94 373.424C194.369 373.555 196.077 373.751 197.861 374.329C199.631 374.897 201.471 375.944 203.282 377.138C205.095 378.351 206.475 379.877 207.556 381.437C208.697 382.924 208.909 384.63 209.085 386.052C209.371 388.909 209.299 390.721 209.461 390.717Z" fill="#EB996E"/>
<path d="M192.426 369.324C192.424 369.437 194.19 369.483 197.009 369.807C199.722 370.222 204.064 370.422 206.538 374.162C209.216 377.564 211.494 380.777 212.49 383.412C213.546 386.03 213.453 387.841 213.606 387.828C213.647 387.829 213.716 387.384 213.675 386.578C213.642 385.772 213.468 384.598 212.988 383.228C212.083 380.447 209.819 377.113 207.125 373.692C206.438 372.833 205.695 372.018 204.833 371.374C203.974 370.718 202.976 370.336 202.058 370.07C200.198 369.545 198.487 369.392 197.06 369.276C194.196 369.086 192.424 369.23 192.426 369.324Z" fill="#EB996E"/>
<path d="M187.311 395.262C187.326 395.279 187.567 395.096 188.011 394.727C188.516 394.322 189.171 393.796 189.985 393.142C191.726 391.794 194.316 389.878 197.736 387.803L197.568 387.835C199.746 388.205 202.203 388.625 204.864 389.077L204.614 388.769C204.598 389.364 204.632 389.947 204.75 390.552C204.873 391.147 205.063 391.787 205.578 392.308C205.846 392.562 206.23 392.712 206.547 392.753C206.872 392.836 207.224 392.869 207.573 392.814C208.27 392.714 208.925 392.348 209.39 391.808C209.509 391.676 209.612 391.528 209.708 391.376L209.774 391.259L209.806 391.2L209.823 391.171L209.825 391.166C209.919 391.13 209.009 391.463 209.397 391.323L209.405 391.325L209.421 391.331L209.651 391.425C209.96 391.548 210.272 391.659 210.595 391.759C210.917 391.859 211.247 391.948 211.595 392.008C211.769 392.038 211.947 392.063 212.137 392.067C212.314 392.074 212.528 392.08 212.812 391.937C213.224 391.644 213.371 391.297 213.528 390.971C213.674 390.64 213.792 390.305 213.891 389.967C214.092 389.289 214.239 388.608 214.36 387.9L213.933 388.195C214.881 388.362 215.997 388.134 216.653 387.268C216.949 386.865 217.191 386.368 217.155 385.798C217.131 385.287 217.017 384.839 216.896 384.385C216.385 382.594 215.662 380.875 214.882 379.134L214.872 379.114L214.858 379.091C214.011 377.748 213.11 376.322 212.2 374.88C211.634 373.983 211.071 373.095 210.513 372.212C209.953 371.357 209.45 370.396 208.663 369.627C207.906 368.861 206.996 368.262 206.016 367.868C205.043 367.449 203.962 367.344 203.009 367.243C199.101 366.804 195.376 366.384 191.892 365.993L191.844 365.987L191.805 365.994C191.122 366.11 190.483 366.27 189.855 366.508C189.244 366.754 188.596 367.033 188.161 367.692L188.569 367.564C187.321 367.052 185.875 367.046 184.782 367.775C183.684 368.498 183.177 369.665 182.908 370.762L182.997 370.608C179.136 374.08 175.985 376.913 173.731 378.941C172.691 379.898 171.861 380.663 171.234 381.24C170.67 381.774 170.381 382.062 170.399 382.083C170.418 382.104 170.741 381.854 171.341 381.361C171.993 380.812 172.856 380.084 173.936 379.173C176.23 377.192 179.436 374.421 183.366 371.026L183.429 370.971L183.454 370.871C183.702 369.904 184.2 368.84 185.107 368.279C185.989 367.685 187.254 367.703 188.301 368.141L188.558 368.25L188.71 368.013C188.962 367.62 189.523 367.325 190.084 367.119C190.653 366.908 191.281 366.756 191.901 366.656L191.815 366.657C195.296 367.068 199.02 367.508 202.924 367.968C203.92 368.078 204.85 368.169 205.739 368.554C206.624 368.913 207.447 369.456 208.131 370.151C208.826 370.822 209.299 371.725 209.878 372.612C210.436 373.495 210.998 374.384 211.564 375.281C212.476 376.723 213.377 378.149 214.225 379.491L214.202 379.449C214.969 381.153 215.693 382.875 216.185 384.58C216.3 385.002 216.406 385.439 216.423 385.826C216.462 386.161 216.292 386.523 216.075 386.827C215.651 387.425 214.796 387.614 214.077 387.497L213.709 387.437L213.65 387.791C213.539 388.459 213.398 389.133 213.212 389.768C213.036 390.369 212.773 391.102 212.449 391.347C212.432 391.355 212.307 391.394 212.152 391.379C212.01 391.378 211.856 391.358 211.706 391.332C211.402 391.282 211.093 391.202 210.791 391.11C210.488 391.019 210.187 390.914 209.894 390.8L209.677 390.713L209.664 390.707L209.659 390.705C210.043 390.564 209.131 390.895 209.225 390.862L209.223 390.865L209.211 390.889L209.185 390.935L209.135 391.028C209.06 391.148 208.98 391.265 208.887 391.371C208.524 391.8 208.011 392.087 207.479 392.169C207.213 392.214 206.945 392.19 206.676 392.122C206.385 392.082 206.191 392 206.009 391.844C205.313 391.118 205.213 389.824 205.209 388.794L205.208 388.524L204.959 388.484C202.292 388.067 199.829 387.683 197.645 387.342L197.551 387.328L197.476 387.375C194.056 389.527 191.511 391.508 189.811 392.929C188.965 393.644 188.33 394.219 187.915 394.62C187.504 395.027 187.294 395.245 187.311 395.262Z" fill="#EB996E"/>
<path d="M298.952 345.726L208.166 346.464C205.221 346.464 202.407 347.879 201.965 350.791L192.043 416.959H145.281C143.775 416.959 142.555 418.18 142.555 419.685C142.555 421.191 143.775 422.411 145.281 422.411H191.225H199.946H294.633L304.839 352.576C305.388 348.971 302.598 345.726 298.952 345.726Z" fill="#E0E0E0"/>
<path d="M298.954 345.726C298.954 345.726 299.448 345.663 300.385 345.86C301.293 346.071 302.725 346.633 303.852 348.159C304.414 348.907 304.842 349.905 304.975 351.057C305.122 352.225 304.787 353.459 304.641 354.791C304.261 357.464 303.823 360.545 303.331 364.006C301.334 377.879 298.454 397.871 294.913 422.451L294.878 422.69H294.634C255.987 422.713 205.199 422.744 149.74 422.776C148.437 422.776 147.138 422.776 145.84 422.776C145.238 422.801 144.401 422.766 143.777 422.383C143.132 422.028 142.631 421.433 142.38 420.744C141.837 419.359 142.486 417.662 143.79 416.974C144.412 416.598 145.241 416.565 145.835 416.589H147.756C152.871 416.591 157.934 416.591 162.931 416.592C172.927 416.595 182.662 416.599 192.043 416.602L191.694 416.903C195.265 393.207 198.596 371.101 201.585 351.269C201.688 350.013 202.257 348.655 203.265 347.813C204.251 346.938 205.498 346.474 206.736 346.281C207.999 346.089 209.201 346.192 210.396 346.151C211.595 346.143 212.783 346.134 213.961 346.127C218.675 346.095 223.235 346.065 227.629 346.036C236.415 345.979 244.54 345.929 251.92 345.882C266.66 345.806 278.41 345.747 286.5 345.705C290.52 345.698 293.626 345.692 295.752 345.688C296.79 345.694 297.584 345.696 298.142 345.699C298.679 345.708 298.954 345.726 298.954 345.726C298.954 345.726 298.681 345.748 298.143 345.764C297.585 345.775 296.793 345.792 295.755 345.813C293.63 345.844 290.524 345.889 286.504 345.947C278.414 346.037 266.664 346.168 251.925 346.331C244.547 346.405 236.422 346.485 227.636 346.572C223.242 346.614 218.683 346.658 213.969 346.702C212.79 346.713 211.602 346.724 210.403 346.735C209.209 346.776 207.98 346.683 206.833 346.866C205.678 347.048 204.535 347.485 203.666 348.263C202.774 349.04 202.302 350.123 202.189 351.362C199.23 371.198 195.932 393.308 192.395 417.01L192.35 417.311H192.046C182.664 417.314 172.928 417.319 162.934 417.321C157.937 417.323 152.874 417.323 147.759 417.324H145.838C145.161 417.306 144.655 417.333 144.147 417.617C143.152 418.144 142.656 419.438 143.071 420.494C143.262 421.017 143.645 421.475 144.137 421.744C144.648 422.034 145.158 422.062 145.844 422.042C147.141 422.042 148.44 422.042 149.744 422.042C205.204 422.075 255.992 422.106 294.638 422.128L294.361 422.368C298.004 397.804 300.967 377.823 303.023 363.958C303.543 360.5 304.005 357.425 304.406 354.754C304.566 353.416 304.91 352.19 304.776 351.076C304.661 349.961 304.259 348.988 303.723 348.253C302.646 346.751 301.257 346.174 300.368 345.939C299.448 345.72 298.951 345.763 298.954 345.726Z" fill="#060606"/>
<path d="M249.711 388.911C252.851 388.911 255.396 386.366 255.396 383.227C255.396 380.087 252.851 377.542 249.711 377.542C246.572 377.542 244.027 380.087 244.027 383.227C244.027 386.366 246.572 388.911 249.711 388.911Z" fill="white"/>
<path d="M195.723 421.8C195.851 421.821 198.742 404.972 202.176 384.171C205.613 363.364 208.294 346.485 208.166 346.462C208.038 346.441 205.148 363.286 201.711 384.094C198.277 404.896 195.595 421.779 195.723 421.8Z" fill="#060606"/>
</svg>
