<svg width="32" height="32" viewBox="0 0 32 32" fill="none" xmlns="http://www.w3.org/2000/svg">
<path d="M21.157 7.34741V28.7723L20.2631 29.284L18.666 28.3662V8.77112L20.2631 7.85798L21.157 7.34741Z" fill="#ECCEB0"/>
<path d="M13.3909 8.77112V22.4812L10.8987 23.9061V7.34741L11.7938 7.85798L13.3909 8.77112Z" fill="#ECCEB0"/>
<mask id="mask0_449_306" style="mask-type:luminance" maskUnits="userSpaceOnUse" x="2" y="0" width="28" height="32">
<path d="M2 0H30V32H2V0Z" fill="white"/>
</mask>
<g mask="url(#mask0_449_306)">
<path d="M29.9158 7.89466L16.1719 0.0390235C16.1672 0.0355023 16.1624 0.0343288 16.1577 0.0319813C16.1482 0.0272867 16.1399 0.0225914 16.1304 0.0190705C16.1209 0.0155493 16.1115 0.0132018 16.1032 0.0108545C16.0937 0.00850725 16.0854 0.00733324 16.0771 0.00498597C16.0664 0.00381204 16.0557 0.00263855 16.0451 0.00263855C16.0403 0.00263855 16.0344 0.00146484 16.0296 0.00146484C16.0261 0.00146484 16.0237 0.00146484 16.0202 0.00146484C16.0095 0.00263848 15.9988 0.00381204 15.9893 0.00498597C15.981 0.0061596 15.9727 0.00733316 15.9644 0.0085071C15.9549 0.0108544 15.9455 0.0143756 15.9372 0.0178968C15.9289 0.020244 15.9194 0.0225913 15.9123 0.0272864C15.9028 0.0308073 15.8957 0.0355024 15.8874 0.0401972C15.8803 0.0448921 15.872 0.0484133 15.8648 0.0542817C15.8565 0.0601502 15.8494 0.0660189 15.8435 0.0718874C15.8364 0.0777558 15.8293 0.0836246 15.8222 0.0906667C15.8162 0.0965352 15.8115 0.103578 15.8056 0.11062C15.7996 0.118836 15.7937 0.125878 15.7878 0.135268C15.7866 0.137615 15.7842 0.138789 15.783 0.14231C15.7807 0.147005 15.7783 0.1517 15.7759 0.156394C15.7712 0.165784 15.7664 0.175174 15.7629 0.184563C15.7605 0.193953 15.7581 0.202169 15.7558 0.210385C15.7534 0.219775 15.751 0.227991 15.7498 0.23738C15.7475 0.247944 15.7463 0.257333 15.7463 0.267897C15.7463 0.272592 15.7451 0.27846 15.7451 0.283155V31.2139L13.5362 29.9522H13.5351L12.8249 29.5472L11.938 29.0402V29.039L5.06606 25.1118C5.06606 25.1118 5.06606 25.1118 5.06487 25.1118L2.57148 23.6869V8.30193L11.5088 3.19513V7.37001L11.0417 7.10358C11.0393 7.1024 11.0369 7.1024 11.0346 7.10006C11.0144 7.08949 10.9942 7.08128 10.9729 7.07541C10.9705 7.07541 10.9693 7.07541 10.9682 7.07541C10.948 7.06954 10.9278 7.06719 10.9065 7.06719C10.8994 7.06719 10.8935 7.06719 10.8875 7.06719C10.8698 7.06837 10.8532 7.07071 10.8366 7.07423C10.8306 7.07541 10.8247 7.07541 10.8188 7.07776C10.7974 7.08362 10.7761 7.09184 10.7547 7.10358L4.77913 10.5191C4.6914 10.5707 4.63686 10.6634 4.63686 10.7644V20.4733C4.63686 20.4768 4.63804 20.4792 4.63804 20.4827C4.63804 20.4921 4.63923 20.5026 4.6416 20.512C4.6416 20.5214 4.64397 20.5296 4.64516 20.539C4.64753 20.5472 4.6499 20.5555 4.65346 20.5648C4.65583 20.5731 4.65938 20.5825 4.66294 20.5907C4.6665 20.5989 4.67124 20.6071 4.67598 20.6141C4.68073 20.6224 4.68547 20.6306 4.69021 20.6376C4.69614 20.6447 4.70207 20.6517 4.708 20.6587C4.71392 20.6658 4.71985 20.6728 4.72697 20.6787C4.73289 20.6846 4.74001 20.6893 4.74712 20.6951C4.75542 20.701 4.76253 20.7069 4.77202 20.7127C4.77439 20.7139 4.77676 20.7163 4.77913 20.7174L10.7559 24.1505H10.7571C10.7785 24.1634 10.8022 24.1728 10.8259 24.1799C10.8508 24.1857 10.8745 24.1893 10.8994 24.1893C10.9089 24.1893 10.9195 24.1857 10.9302 24.1857C10.9444 24.1834 10.9587 24.1834 10.9717 24.1799C10.9788 24.1775 10.9859 24.1728 10.9942 24.1705C11.0097 24.1646 11.0263 24.1599 11.0405 24.1517C11.0417 24.1517 11.0417 24.1505 11.0417 24.1505L13.5339 22.7268C13.6228 22.6763 13.6773 22.5825 13.6773 22.4815V8.77142C13.6773 8.67048 13.6228 8.57658 13.5339 8.52611L12.0791 7.69513V2.70452C12.0791 2.69865 12.0779 2.69395 12.0779 2.68808C12.0767 2.67869 12.0767 2.66813 12.0744 2.65874C12.0732 2.64935 12.0708 2.64114 12.0684 2.63175C12.0661 2.62353 12.0637 2.61414 12.0601 2.60593C12.0566 2.59654 12.053 2.58715 12.0471 2.57776C12.0447 2.57306 12.0435 2.56837 12.0412 2.5625C12.0388 2.56015 12.0376 2.5578 12.0352 2.55546C12.0293 2.54724 12.0234 2.53902 12.0174 2.53081C12.0115 2.52377 12.0068 2.51672 12.0008 2.51085C11.9937 2.50381 11.9878 2.49794 11.9807 2.49208C11.9736 2.48621 11.9665 2.48034 11.9594 2.47447C11.9522 2.46977 11.9439 2.46508 11.9356 2.46039C11.9273 2.45569 11.9202 2.45217 11.9119 2.44747C11.9036 2.44395 11.8941 2.44161 11.8858 2.43808C11.8764 2.43456 11.8681 2.43222 11.8586 2.42987C11.8515 2.42752 11.842 2.42752 11.8337 2.42635C11.823 2.42517 11.8135 2.42283 11.8028 2.42283C11.7993 2.42283 11.7969 2.42165 11.7934 2.42165C11.7886 2.42165 11.7827 2.42283 11.7779 2.424C11.7673 2.424 11.7566 2.42517 11.7459 2.42635C11.7376 2.42752 11.7293 2.42987 11.721 2.43222C11.7116 2.43456 11.7033 2.43808 11.6938 2.44161C11.6843 2.44513 11.6748 2.44865 11.6665 2.45334C11.6618 2.45569 11.6558 2.45686 11.6511 2.46039L2.14228 7.89466C2.05454 7.94513 2 8.03785 2 8.13996V23.8501C2 23.951 2.05454 24.0449 2.14228 24.0954L4.77913 25.6012H4.78032L11.6523 29.5296L12.5379 30.0367H12.5391L13.2493 30.4416V30.4428L15.8874 31.9486C15.8909 31.951 15.8945 31.951 15.898 31.9533C15.9123 31.9616 15.9289 31.9674 15.9455 31.9733C15.9514 31.9745 15.9573 31.9768 15.9632 31.978C15.9846 31.9839 16.0059 31.9862 16.0285 31.9874C16.0296 31.9874 16.0296 31.9874 16.0296 31.9874C16.0534 31.9874 16.0747 31.9839 16.096 31.978C16.102 31.9768 16.1079 31.9745 16.1126 31.9733C16.1292 31.9686 16.1447 31.9627 16.1601 31.9545C16.166 31.9522 16.1719 31.9486 16.1778 31.9451C16.1944 31.9357 16.2099 31.924 16.2241 31.9099C16.2265 31.9087 16.2288 31.9064 16.2312 31.9052C16.2466 31.8888 16.2597 31.8712 16.2727 31.8512C16.2739 31.8489 16.2763 31.8477 16.2763 31.8454C16.2798 31.8407 16.281 31.836 16.2834 31.8301C16.2881 31.8219 16.2917 31.8125 16.2952 31.8031C16.2988 31.7949 16.3012 31.7855 16.3035 31.7773C16.3059 31.7691 16.3083 31.7597 16.3095 31.7515C16.3106 31.7409 16.3118 31.7303 16.313 31.7198C16.313 31.7139 16.3142 31.7092 16.3142 31.7045V0.772592L29.4866 8.30193V23.6857L27.4189 24.8665V10.7644C27.4189 10.6623 27.3655 10.5695 27.2766 10.5191L21.2998 7.1024C21.2796 7.09184 21.2583 7.08362 21.237 7.07658C21.231 7.07541 21.2251 7.07423 21.2192 7.07306C21.2014 7.06954 21.1848 7.06719 21.1682 7.06602C21.1623 7.06602 21.1563 7.06602 21.1504 7.06602C21.1279 7.06602 21.1065 7.06837 21.0864 7.07423C21.0852 7.07423 21.084 7.07423 21.084 7.07423C21.0627 7.0801 21.0413 7.08949 21.0212 7.10006C21.02 7.10123 21.0176 7.10123 21.0152 7.1024L18.523 8.52611C18.4353 8.57658 18.3808 8.6693 18.3808 8.77142V28.3665C18.3808 28.4674 18.4353 28.5602 18.523 28.6106L20.1213 29.5285C20.1651 29.5543 20.2149 29.566 20.2636 29.566C20.3134 29.566 20.3631 29.5543 20.407 29.5285L21.301 29.0167C21.3887 28.9663 21.4444 28.8735 21.4444 28.7726V7.83832L26.8498 10.9275V25.3571C26.8498 25.3618 26.851 25.3677 26.851 25.3724C26.851 25.3829 26.8521 25.3923 26.8545 25.4029C26.8557 25.4123 26.8581 25.4205 26.8604 25.4299C26.8628 25.4381 26.8652 25.4463 26.8687 25.4557C26.8723 25.4651 26.8759 25.4745 26.8806 25.4839C26.883 25.4874 26.8842 25.4932 26.8877 25.4979C26.8889 25.4991 26.8901 25.5015 26.8925 25.5038C26.9043 25.5226 26.9173 25.5414 26.9339 25.5566C26.9363 25.559 26.9375 25.5602 26.9399 25.5625C26.9541 25.5754 26.9707 25.5871 26.9873 25.5977C26.9932 25.6001 26.9992 25.6036 27.0051 25.6071C27.0193 25.6141 27.0347 25.62 27.0513 25.6247C27.0573 25.6271 27.062 25.6294 27.0679 25.6306C27.0893 25.6353 27.1118 25.6388 27.1355 25.6388C27.158 25.6388 27.1806 25.6353 27.2007 25.6306C27.2078 25.6282 27.2126 25.6271 27.2185 25.6247C27.2351 25.62 27.2517 25.613 27.2671 25.6048C27.2707 25.6036 27.2742 25.6024 27.2778 25.6012L29.9158 24.0942C30.0047 24.0437 30.0593 23.951 30.0593 23.8489V8.13996C30.0593 8.03785 30.0047 7.94513 29.9158 7.89466ZM10.6137 7.83832V23.4158L5.20833 20.3102V10.9275L10.6137 7.83832ZM13.107 22.3184L11.1851 23.417V7.83715L13.107 8.93456V22.3184ZM20.873 28.6094L20.2647 28.9569L18.9522 28.2033V8.93456L20.873 7.83715V28.6094Z" fill="white"/>
</g>
</svg>
