<?xml version="1.0" encoding="UTF-8"?>
<!DOCTYPE svg PUBLIC "-//W3C//DTD SVG 1.1//EN" "http://www.w3.org/Graphics/SVG/1.1/DTD/svg11.dtd">
<!-- Creator: CorelDRAW X7 -->
<svg xmlns="http://www.w3.org/2000/svg" xml:space="preserve" width="42.5556mm" height="9.8373mm" version="1.1" style="shape-rendering:geometricPrecision; text-rendering:geometricPrecision; image-rendering:optimizeQuality; fill-rule:evenodd; clip-rule:evenodd"
viewBox="0 0 717 166"
 xmlns:xlink="http://www.w3.org/1999/xlink">
 <defs>
  <style type="text/css">
   <![CDATA[
    .fil0 {fill:#877F7A;fill-rule:nonzero}
   ]]>
  </style>
 </defs>
 <g id="Layer_x0020_1">
  <metadata id="CorelCorpID_0Corel-Layer"/>
  <path class="fil0" d="M663 74c11,3 21,6 28,10 8,3 14,8 19,14 5,6 7,13 7,22 0,9 -2,17 -7,24 -5,7 -12,12 -21,16 -9,4 -19,6 -30,6 -12,0 -22,-3 -32,-10 -10,-6 -18,-15 -23,-25l13 -7c5,8 11,15 18,20 8,5 16,8 24,8 7,0 14,-2 21,-4 7,-2 12,-6 17,-11 4,-5 6,-10 6,-17 0,-8 -4,-14 -12,-19 -8,-5 -18,-9 -30,-13 -35,-9 -52,-23 -52,-40 0,-9 2,-17 7,-24 4,-8 11,-13 19,-18 9,-4 18,-6 28,-6 12,0 22,3 31,8 9,6 16,13 20,22l-13 6c-4,-7 -10,-13 -16,-16 -6,-4 -13,-6 -22,-6 -7,0 -13,2 -19,4 -6,3 -11,7 -15,12 -4,5 -5,10 -5,17 0,4 1,9 5,12 4,3 8,6 13,8 5,2 13,4 21,7z"/>
  <polygon class="fil0" points="525,0 594,166 578,166 525,38 473,166 457,166 "/>
  <polygon class="fil0" points="397,166 328,0 344,0 349,12 397,128 450,0 466,0 "/>
  <polygon class="fil0" points="309,0 294,0 294,166 309,166 "/>
  <polygon class="fil0" points="269,153 269,166 152,166 246,13 164,13 164,0 271,0 176,153 "/>
  <polygon class="fil0" points="69,0 137,166 121,166 69,38 16,166 0,166 "/>
 </g>
</svg>
