<?xml version="1.0" encoding="UTF-8"?>
<!DOCTYPE svg PUBLIC "-//W3C//DTD SVG 1.1//EN" "http://www.w3.org/Graphics/SVG/1.1/DTD/svg11.dtd">
<!-- Creator: CorelDRAW X7 -->
<svg xmlns="http://www.w3.org/2000/svg" xml:space="preserve" width="170.921mm" height="170.922mm" version="1.1" style="shape-rendering:geometricPrecision; text-rendering:geometricPrecision; image-rendering:optimizeQuality; fill-rule:evenodd; clip-rule:evenodd"
viewBox="0 0 73761 73762"
 xmlns:xlink="http://www.w3.org/1999/xlink">
 <defs>
  <style type="text/css">
   <![CDATA[
    .str1 {stroke:#F2ECE2;stroke-width:730.746}
    .str0 {stroke:#F2ECE2;stroke-width:182.676}
    .fil0 {fill:none;fill-rule:nonzero}
   ]]>
  </style>
 </defs>
 <g id="Layer_x0020_1">
  <metadata id="CorelCorpID_0Corel-Layer"/>
  <g id="_2234016562896">
   <line class="fil0 str0" x1="3062" y1="65" x2="65" y2= "3060" />
   <line class="fil0 str0" x1="10926" y1="65" x2="65" y2= "10920" />
   <line class="fil0 str0" x1="18791" y1="65" x2="65" y2= "18779" />
   <line class="fil0 str0" x1="26655" y1="65" x2="65" y2= "26638" />
   <line class="fil0 str0" x1="34519" y1="65" x2="65" y2= "34498" />
   <line class="fil0 str0" x1="42384" y1="65" x2="65" y2= "42357" />
   <line class="fil0 str0" x1="50248" y1="65" x2="65" y2= "50217" />
   <line class="fil0 str0" x1="58112" y1="65" x2="65" y2= "58076" />
   <line class="fil0 str0" x1="65977" y1="65" x2="65" y2= "65935" />
   <line class="fil0 str1" x1="73503" y1="403" x2="356" y2= "73503" />
   <line class="fil0 str0" x1="73503" y1="8262" x2="8221" y2= "73503" />
   <line class="fil0 str0" x1="73503" y1="16121" x2="16085" y2= "73503" />
   <line class="fil0 str0" x1="73503" y1="23981" x2="23949" y2= "73503" />
   <line class="fil0 str0" x1="73503" y1="31840" x2="31814" y2= "73503" />
   <line class="fil0 str0" x1="73503" y1="39700" x2="39678" y2= "73503" />
   <line class="fil0 str0" x1="73503" y1="47559" x2="47542" y2= "73503" />
   <line class="fil0 str0" x1="73503" y1="55418" x2="55407" y2= "73503" />
   <line class="fil0 str0" x1="73503" y1="63278" x2="63271" y2= "73503" />
   <line class="fil0 str0" x1="73503" y1="71137" x2="71135" y2= "73503" />
  </g>
 </g>
</svg>
